<?xml version="1.0" encoding="utf-8"?>
<!-- Generator: Adobe Illustrator 23.1.1, SVG Export Plug-In . SVG Version: 6.00 Build 0)  -->
<svg version="1.1" id="レイヤー_1" xmlns="http://www.w3.org/2000/svg" xmlns:xlink="http://www.w3.org/1999/xlink" x="0px"
	 y="0px" width="116.978px" height="130.506px" viewBox="0 0 116.978 130.506" style="enable-background:new 0 0 116.978 130.506;"
	 xml:space="preserve">
<style type="text/css">
	.st0{fill:#00A7DF;}
	.st1{fill:#FFFFFF;}
	.st2{fill:#DD2724;}
</style>
<g>
	<g>
		<g>
			<path d="M57.609,20.612c0.934-0.509,2.111-1.237,2.111-2.632c0-1.395-1.031-2.22-2.426-2.22c-1.213,0-1.929,0.485-2.135,0.667
				c-0.243,0.206-0.267,0.534-0.073,0.789c0.206,0.218,0.546,0.242,0.788,0.048c0.182-0.121,0.582-0.412,1.346-0.412
				c0.776,0,1.419,0.315,1.419,1.092c0,0.764-0.655,1.164-1.262,1.516c-0.606,0.327-2.353,1.358-2.353,3.178v0.522
				c0,0.303,0.158,0.667,0.522,0.667h3.615c0.315,0,0.558-0.243,0.558-0.558c0-0.303-0.243-0.558-0.558-0.558h-2.996V22.48
				C56.166,21.837,56.699,21.133,57.609,20.612z"/>
			<path d="M65.083,15.711h-0.606c-0.861,0-2.292-0.133-2.292,4.076s1.431,4.088,2.292,4.088h0.606c0.862,0,2.293,0.121,2.293-4.088
				S65.945,15.711,65.083,15.711z M65.351,22.734h-1.14c-0.8,0-0.91-1.104-0.91-2.948c0-1.844,0.109-2.947,0.91-2.947h1.14
				c0.8,0,0.909,1.104,0.909,2.947C66.26,21.631,66.151,22.734,65.351,22.734z"/>
			<path d="M72.333,15.711c-0.134,0-0.425,0.085-0.728,0.352l-1.589,1.371c-0.23,0.206-0.267,0.558-0.061,0.788
				c0.194,0.231,0.558,0.267,0.789,0.061l1.164-1.019v6.053c0,0.303,0.255,0.558,0.558,0.558c0.303,0,0.57-0.255,0.57-0.558v-7.132
				C73.036,15.845,72.66,15.711,72.333,15.711z"/>
			<path d="M78.916,15.748c-1.189,0-2.632,0.643-2.632,2.741c0,1.468,1.091,2.511,2.572,2.511c0.206,0,0.4-0.024,0.607-0.073
				c-0.692,1.043-1.528,1.88-1.759,2.062c-0.109,0.085-0.134,0.23-0.134,0.364c0,0.315,0.243,0.558,0.558,0.558
				c0.146,0,0.291-0.061,0.388-0.158c0.327-0.327,2.972-2.899,2.972-5.155C81.487,16.16,79.764,15.748,78.916,15.748z
				 M78.818,19.933c-0.667,0-1.48-0.376-1.48-1.565c0-1.201,1.08-1.516,1.528-1.516c0.607,0,1.541,0.291,1.541,1.601
				C80.408,19.617,79.462,19.933,78.818,19.933z"/>
			<path d="M85.536,19.237h-0.461c-0.279,0-0.534,0.243-0.534,0.534v0.425c0,0.303,0.254,0.534,0.534,0.534h0.461
				c0.279,0,0.534-0.23,0.534-0.534V19.77C86.07,19.479,85.815,19.237,85.536,19.237z"/>
			<path d="M91.981,20.612c0.934-0.509,2.111-1.237,2.111-2.632c0-1.395-1.031-2.22-2.426-2.22c-1.213,0-1.928,0.485-2.135,0.667
				c-0.243,0.206-0.267,0.534-0.073,0.789c0.206,0.218,0.546,0.242,0.789,0.048c0.181-0.121,0.582-0.412,1.346-0.412
				c0.776,0,1.419,0.315,1.419,1.092c0,0.764-0.655,1.164-1.262,1.516c-0.606,0.327-2.353,1.358-2.353,3.178v0.522
				c0,0.303,0.158,0.667,0.522,0.667h3.614c0.316,0,0.558-0.243,0.558-0.558c0-0.303-0.243-0.558-0.558-0.558h-2.996V22.48
				C90.538,21.837,91.071,21.133,91.981,20.612z"/>
			<path d="M99.456,15.711h-0.607c-0.861,0-2.292-0.133-2.292,4.076s1.431,4.088,2.292,4.088h0.607c0.861,0,2.292,0.121,2.292-4.088
				S100.317,15.711,99.456,15.711z M99.722,22.734h-1.14c-0.8,0-0.909-1.104-0.909-2.948c0-1.844,0.109-2.947,0.909-2.947h1.14
				c0.8,0,0.91,1.104,0.91,2.947C100.632,21.631,100.523,22.734,99.722,22.734z"/>
			<path d="M106.744,20.612c0.934-0.509,2.111-1.237,2.111-2.632c0-1.395-1.031-2.22-2.426-2.22c-1.213,0-1.928,0.485-2.135,0.667
				c-0.243,0.206-0.267,0.534-0.073,0.789c0.206,0.218,0.546,0.242,0.789,0.048c0.182-0.121,0.582-0.412,1.346-0.412
				c0.776,0,1.419,0.315,1.419,1.092c0,0.764-0.655,1.164-1.262,1.516c-0.606,0.327-2.353,1.358-2.353,3.178v0.522
				c0,0.303,0.158,0.667,0.522,0.667h3.614c0.316,0,0.558-0.243,0.558-0.558c0-0.303-0.243-0.558-0.558-0.558h-2.996V22.48
				C105.301,21.837,105.835,21.133,106.744,20.612z"/>
			<path d="M114.22,15.711h-0.607c-0.861,0-2.292-0.133-2.292,4.076s1.431,4.088,2.292,4.088h0.607c0.861,0,2.292,0.121,2.292-4.088
				S115.081,15.711,114.22,15.711z M114.487,22.734h-1.14c-0.8,0-0.909-1.104-0.909-2.948c0-1.844,0.109-2.947,0.909-2.947h1.14
				c0.8,0,0.91,1.104,0.91,2.947C115.396,21.631,115.287,22.734,114.487,22.734z"/>
			<path d="M1.27,16.468c0.285,0.163,0.734,0.479,0.999,0.887c0.092,0.153,0.224,0.214,0.346,0.214c0.276,0,0.551-0.275,0.551-0.571
				c0-0.52-1.274-1.305-1.58-1.305c-0.276,0-0.52,0.234-0.52,0.459C1.066,16.274,1.127,16.386,1.27,16.468z"/>
			<path d="M3.839,17.191h1.845c-0.031,0.204-0.061,0.357-0.102,0.52c-0.55,0-1.509,0-1.529,0.887
				c-0.01,0.489-0.02,0.999-0.02,1.498c0,0.489,0.01,0.968,0.02,1.417c0.02,0.52,0.347,0.907,1.04,0.927
				c0.326,0.01,0.805,0.02,1.274,0.02c0.387,0,0.764-0.01,1.05-0.02c0.632-0.03,1.04-0.449,1.06-0.938
				c0.02-0.459,0.03-0.948,0.03-1.437c0-0.499-0.01-0.999-0.03-1.478c-0.02-0.449-0.398-0.836-1.06-0.866
				c-0.235-0.01-0.54-0.02-0.877-0.02c0.041-0.153,0.092-0.336,0.133-0.51h2.202c0.285,0,0.428-0.204,0.428-0.408
				c0-0.194-0.143-0.397-0.428-0.397H7.426c0.306-0.479,0.449-0.744,0.449-0.836c0-0.234-0.306-0.408-0.571-0.408
				c-0.163,0-0.306,0.061-0.367,0.214c-0.194,0.5-0.306,0.734-0.459,1.03H5.622c0.092-0.081,0.153-0.194,0.153-0.316
				c0-0.163-0.377-0.866-0.795-0.866c-0.245,0-0.51,0.163-0.51,0.367c0,0.051,0.02,0.102,0.061,0.163
				c0.081,0.112,0.234,0.255,0.397,0.581c0.01,0.03,0.02,0.051,0.041,0.071H3.839c-0.286,0-0.439,0.204-0.439,0.397
				C3.4,16.987,3.553,17.191,3.839,17.191z M7.539,21.35c-0.01,0.398-0.081,0.398-1.447,0.398c-0.897,0-1.101-0.01-1.121-0.387
				c0-0.092-0.01-0.194-0.01-0.296h2.589C7.549,21.167,7.539,21.258,7.539,21.35z M7.559,20.361H4.95V19.74h2.609V20.361z
				 M7.539,18.792l0.01,0.234H4.96c0-0.082,0.01-0.153,0.01-0.224c0.02-0.398,0.173-0.398,1.233-0.398
				C7.467,18.404,7.518,18.404,7.539,18.792z"/>
			<path d="M9.098,22.971c-0.02,0-0.031,0-0.051,0c-0.774,0.061-1.885,0.173-2.905,0.173c-1.417,0-2.466-0.214-3.109-1.03
				c0-0.652,0.02-1.356,0.02-1.947c0-0.652-0.306-0.938-0.958-0.958c-0.336-0.01-0.621-0.01-0.989-0.01
				c-0.275,0-0.428,0.234-0.428,0.459c0,0.428,0.367,0.438,0.561,0.438c0.133,0,0.255,0,0.398,0c0.346,0,0.469,0.031,0.469,0.296
				c0,0.143,0,0.275,0,0.418c0,0.387-0.01,0.785-0.02,1.244c-0.347,0.408-0.815,0.754-1.366,1.06
				c-0.183,0.102-0.255,0.245-0.255,0.387c0,0.275,0.265,0.54,0.561,0.54c0.397,0,1.029-0.642,1.539-1.213
				c0.958,0.989,1.794,1.254,4.006,1.254c0.927,0,1.865-0.061,2.508-0.122c0.357-0.03,0.509-0.265,0.509-0.499
				C9.587,23.215,9.414,22.971,9.098,22.971z"/>
			<path d="M13.019,18.272c0.51,0,1.774-1.172,2.599-2.365c0.072-0.102,0.102-0.214,0.102-0.306c0-0.275-0.245-0.499-0.51-0.499
				c-0.143,0-0.296,0.071-0.408,0.255c-0.499,0.826-1.162,1.519-1.957,1.978c-0.234,0.143-0.336,0.316-0.336,0.479
				C12.51,18.119,12.785,18.272,13.019,18.272z"/>
			<path d="M15.945,17.619c0-0.255-0.255-0.52-0.53-0.52c-0.143,0-0.285,0.072-0.387,0.234c-0.621,1.04-1.498,1.937-2.375,2.446
				c-0.173,0.102-0.245,0.255-0.245,0.408c0,0.255,0.204,0.51,0.489,0.51c0.153,0,0.306-0.071,0.999-0.632l-0.123,3.659
				c0,0.01,0,0.01,0,0.02c0,0.296,0.235,0.438,0.469,0.438c0.255,0,0.5-0.153,0.51-0.459l0.112-4.597
				c0.346-0.377,0.673-0.785,0.989-1.233C15.914,17.803,15.945,17.711,15.945,17.619z"/>
			<path d="M20.817,19.607c0.102,0.173,0.244,0.245,0.397,0.245c0.245,0,0.489-0.214,0.489-0.499c0-0.469-1.233-1.631-1.641-1.631
				c-0.234,0-0.449,0.173-0.449,0.377c0,0.092,0.051,0.204,0.163,0.296c0.072,0.061,0.153,0.122,0.224,0.194
				c-0.581,0.081-1.193,0.163-1.825,0.214c0.326-0.265,2.049-1.774,2.049-2.273c0-0.255-0.265-0.438-0.53-0.438
				c-0.143,0-0.296,0.061-0.387,0.204c-0.286,0.438-0.683,0.938-1.111,1.396c-0.193-0.194-0.408-0.387-0.642-0.561
				c0.642-0.601,1.152-1.356,1.152-1.56c0-0.255-0.296-0.469-0.561-0.469c-0.143,0-0.275,0.061-0.347,0.214
				c-0.224,0.479-0.55,0.989-0.927,1.376c-0.122-0.071-0.336-0.173-0.469-0.173c-0.255,0-0.438,0.204-0.438,0.418
				c0,0.143,0.071,0.275,0.245,0.367c0.479,0.234,0.958,0.601,1.356,1.009c-0.234,0.214-0.469,0.387-0.693,0.561l-0.02,0.01
				c-0.336,0.01-0.673,0.02-1.009,0.02c-0.255,0-0.377,0.214-0.377,0.418c0,0.224,0.133,0.438,0.387,0.438
				c0.459,0,1.233-0.071,1.58-0.102c-0.632,1.101-1.111,1.682-2.12,2.365c-0.133,0.081-0.183,0.204-0.183,0.316
				c0,0.234,0.204,0.459,0.469,0.459c0.387,0,1.284-0.856,1.753-1.458c0.163,0.347,0.387,0.683,0.662,1.009
				c-0.561,0.438-1.254,0.805-2.039,0.948c-0.245,0.051-0.367,0.224-0.367,0.408c0,0.234,0.173,0.469,0.489,0.469
				c0.112,0,1.356-0.194,2.579-1.182c1.05,0.856,2.222,1.05,2.446,1.05c0.357,0,0.54-0.275,0.54-0.53
				c0-0.214-0.122-0.408-0.377-0.438c-0.815-0.102-1.468-0.346-1.977-0.683c0.479-0.53,0.988-1.315,0.988-1.723
				c0-0.367-0.275-0.652-0.764-0.652c-0.173,0-0.846,0.02-1.305,0.03l0.051-0.071c0.061-0.092,0.081-0.173,0.081-0.255
				c0-0.051-0.01-0.102-0.03-0.153c0.795-0.092,1.559-0.214,2.232-0.347C20.654,19.342,20.736,19.475,20.817,19.607z M19.033,20.749
				c0.01,0,0.02,0,0.031,0c0.071,0,0.153,0.02,0.153,0.112c0,0.173-0.377,0.673-0.601,0.927c-0.296-0.326-0.52-0.673-0.683-1.019
				C18.391,20.769,18.962,20.749,19.033,20.749z"/>
			<path d="M31.335,16.488c-1.529,0-3.751-0.01-5.229,0.061c-0.764,0.041-0.815,1.019,0.081,0.979
				c1.427-0.071,3.65-0.102,4.791-0.092c0.265,0,0.265,0.153,0.112,0.367c-0.397,0.55-1.172,1.009-1.855,1.284
				c-0.03,0.01-0.051,0.031-0.082,0.041c0.01-0.122,0.01-0.255,0.01-0.377c0.01-0.428-0.296-0.581-0.612-0.581
				c-0.326,0-0.602,0.194-0.561,0.622c0.153,1.478-0.428,3.16-2.14,4.006c-0.408,0.204-0.449,0.561-0.276,0.795
				c0.173,0.234,0.551,0.346,0.958,0.092c1.509-0.948,2.273-2.161,2.528-3.721c0.143,0.092,0.347,0.112,0.581,0.031
				c1.111-0.398,1.855-1.05,2.528-1.815C32.884,17.375,32.395,16.488,31.335,16.488z"/>
			<path d="M41.845,19.077h-6.402c-0.346,0-0.54,0.265-0.54,0.52c0,0.245,0.173,0.489,0.54,0.489h6.402
				c0.346,0,0.52-0.255,0.52-0.499C42.364,19.332,42.191,19.077,41.845,19.077z"/>
			<path d="M47.625,18.659c-0.061-0.01-0.123-0.01-0.173-0.01c0.01-0.999,0.02-1.886,0.03-2.385c0.02-0.693-1.08-0.703-1.06-0.01
				c0.041,1.468,0.01,5.464-0.061,7.115c-0.04,0.815,1.121,0.785,1.101-0.041c-0.02-0.826-0.02-2.293-0.01-3.7
				c0.54,0.102,1.549,0.5,1.988,0.826c0.581,0.428,1.162-0.459,0.632-0.907C49.52,19.077,48.195,18.751,47.625,18.659z"/>
		</g>
		<g>
			<g>
				<g>
					<g>
						<path d="M3.26,9.659c-0.537,0-1.074,0-1.498-0.021C0.703,9.603,0.07,9.015,0.03,8.025C0.01,7.356,0,6.241,0,5.125
							c0-0.992,0.01-1.996,0.03-2.683c0.027-0.869,0.677-1.455,1.654-1.494c0.394-0.011,1.062-0.021,1.718-0.021
							c0.545,0,1.079,0.01,1.43,0.021C5.6,0.972,6.431,1.533,6.458,2.525c0.021,0.623,0.031,1.646,0.031,2.671
							c0,1.127-0.011,2.254-0.031,2.798C6.432,8.922,5.756,9.6,4.815,9.639C4.363,9.659,3.807,9.659,3.26,9.659z M1.749,5.847
							c0.001,0.7,0.003,1.34,0.021,1.749C1.775,7.771,1.787,7.83,1.796,7.85c0.115,0.07,0.883,0.07,1.443,0.07
							c0.011,0,0.021,0,0.031,0c0.382,0,0.77-0.001,1.024-0.01c0.351-0.013,0.372-0.099,0.384-0.347
							c0.017-0.421,0.02-1.049,0.021-1.717H1.749z M4.697,4.159C4.694,3.676,4.687,3.243,4.679,2.923
							c-0.006-0.196-0.023-0.25-0.03-0.264C4.546,2.596,3.926,2.596,3.27,2.596c-0.699,0-1.359,0-1.479,0.083
							C1.794,2.682,1.777,2.738,1.77,2.93C1.762,3.252,1.754,3.68,1.751,4.159H4.697z"/>
					</g>
					<g>
						<path d="M10.973,9.771c-0.522,0-0.916-0.376-0.916-0.875c0-0.461,0.339-0.835,0.825-0.911
							c0.208-0.036,0.386-0.067,0.552-0.098V1.252c0-0.487,0.38-0.854,0.885-0.854c0.51,0,0.895,0.367,0.895,0.854V3.2h1.368
							c0.132,0,0.255,0.027,0.364,0.077c0.003-1.088,0.008-1.949,0.015-2.07c0.033-0.459,0.405-0.789,0.885-0.789
							c0.488,0,0.869,0.353,0.885,0.82c0,0.17,0,0.972-0.005,1.965c0.49-0.279,0.962-0.581,1.309-0.841
							c0.148-0.112,0.323-0.171,0.503-0.171c0.487,0,0.915,0.446,0.915,0.956c0,0.309-0.158,0.588-0.445,0.785
							c-0.617,0.398-1.585,0.868-2.299,1.164c-0.006,0.843-0.028,2.771-0.028,2.771c0.016,0.037,0.104,0.094,0.532,0.094
							c0.716,0,0.716,0,0.716-0.686c0-0.578,0.363-0.945,0.864-0.945c0.456,0,0.946,0.293,0.946,0.936
							c0,2.424-1.532,2.424-2.547,2.424c-0.593,0-1.886,0-2.187-1.14c-0.064,0.044-0.135,0.084-0.212,0.118
							C13.432,9.257,11.45,9.771,10.973,9.771z M13.213,7.439c0.356-0.111,0.692-0.232,0.992-0.356
							c0.115-0.042,0.237-0.08,0.376-0.08c0.129,0,0.25,0.028,0.359,0.08c0-0.645,0.001-1.447,0.002-2.25
							c-0.108,0.05-0.23,0.076-0.361,0.076h-1.368V7.439z"/>
					</g>
					<g>
						<path d="M28.672,9.914c-0.387,0-1.415,0-1.415-0.977c0-0.181,0.046-0.344,0.126-0.479c-1.448,0.51-3.649,0.896-3.95,0.896
							c-0.474,0-0.844-0.38-0.844-0.864c0-0.447,0.296-0.781,0.737-0.832c0.41-0.04,0.811-0.097,1.199-0.163V7.135l-0.896,0.007
							c-0.459,0-0.796-0.337-0.796-0.783c0-0.458,0.341-0.803,0.793-0.803l0.909-0.008V5.493l-0.298-0.014
							c-0.779-0.058-1.282-0.524-1.322-1.219c-0.011-0.36-0.021-0.763-0.021-1.174c0-0.422,0.01-0.844,0.021-1.215
							c0.034-0.81,0.554-1.309,1.389-1.342C24.672,0.51,25.035,0.51,25.41,0.51s0.749,0,1.113,0.021
							c0.421,0.018,0.777,0.193,1.005,0.471c0.136-0.196,0.36-0.339,0.672-0.349c0.568-0.011,1.202-0.021,1.827-0.021H30.7
							c0.802,0,1.221,0.517,1.221,1.027c0,0.389-0.217,0.83-1.229,1.677c0.025,0.076,0.037,0.157,0.037,0.24
							c0,0.009,0,0.019,0,0.027l0.451,0.005c0.764,0.013,1.271,0.491,1.271,1.19c0,0.643-0.642,1.663-0.706,1.728
							c-0.178,0.232-0.47,0.381-0.79,0.381c-0.161,0-0.311-0.037-0.439-0.103l0.02,1.362C30.535,8.987,30.048,9.914,28.672,9.914z
							 M28.04,8.083c0.049,0,0.14,0,0.234,0.033c0.144,0.028,0.286,0.049,0.387,0.049c0.084,0,0.114-0.014,0.118-0.016
							c-0.001-0.001,0.027-0.051,0.027-0.201V5.225c-0.32,0.007-0.601,0.011-0.858,0.011c-0.192,0-0.365-0.056-0.502-0.151
							c-0.202,0.198-0.515,0.355-0.995,0.395l-0.248,0.013v0.04L27.1,5.524c0.446,0,0.785,0.344,0.785,0.783
							c0,0.242-0.099,0.455-0.261,0.601c0.262,0.125,0.444,0.402,0.444,0.725c0,0.168-0.05,0.325-0.14,0.458
							C27.965,8.085,28.002,8.083,28.04,8.083z M26.203,7.129c0.016-0.003,0.03-0.007,0.045-0.011h-0.045V7.129z M26.183,3.966
							c0.026-0.003,0.047-0.006,0.06-0.011c-0.018-0.006-0.026-0.082-0.03-0.188h-0.029V3.966z M24.556,3.959V3.768H24.54
							c0.002,0.064,0.005,0.128,0.008,0.19C24.55,3.958,24.553,3.958,24.556,3.959z M27.822,2.218
							c0.014,0.296,0.021,0.588,0.021,0.879c0,0.175-0.002,0.347-0.007,0.518c0.036-0.004,0.073-0.006,0.111-0.006
							c0.177-0.004,0.357-0.006,0.54-0.008c-0.033-0.018-0.065-0.033-0.095-0.048c-0.263-0.132-0.413-0.36-0.413-0.629
							c0-0.238,0.118-0.46,0.301-0.615c-0.016,0-0.046,0.001-0.046,0.001C28.082,2.31,27.942,2.276,27.822,2.218z M26.19,2.232
							c-0.001-0.014-0.008-0.125-0.008-0.125v0.125H26.19z M24.556,2.232V2.074c-0.031,0.003-0.055,0.007-0.068,0.012
							c0.021,0,0.031,0.058,0.037,0.146H24.556z"/>
					</g>
					<g>
						<path d="M35.574,10.036c-0.58,0-0.926-0.444-0.926-0.874c0-0.362,0.256-0.783,0.817-0.852
							c0.864-0.117,1.981-0.485,2.379-1.565c-0.01,0-0.02,0-0.029-0.001c-1.077-0.029-1.5-0.69-1.536-1.3
							c-0.01-0.215-0.01-0.415-0.01-0.615c0-0.261,0-0.513,0.01-0.722c0.022-0.468,0.304-1.005,0.997-1.199l-1.141,0.003
							c-0.487,0-0.854-0.358-0.854-0.834c0-0.399,0.299-0.823,0.854-0.823l2.561,0.008V1.048c0-0.47,0.38-0.823,0.885-0.823
							c0.511,0,0.896,0.354,0.896,0.823l-0.003,0.214l2.674-0.008c0.557,0,0.855,0.424,0.855,0.823c0,0.476-0.367,0.834-0.854,0.834
							l-1.187-0.003c0.547,0.166,0.952,0.597,0.99,1.107c0.011,0.209,0.021,0.439,0.021,0.691c0,0.239-0.011,0.49-0.021,0.719
							c-0.046,0.743-0.683,1.294-1.515,1.318c-0.066,0.004-0.132,0.006-0.198,0.007l-0.008,0.257
							c-0.011,0.342-0.022,0.689-0.022,0.921c0,0.054,0,0.153,0.009,0.188c0.001-0.002,0.003-0.003,0.007-0.003
							c0.029,0,0.165,0.04,0.537,0.04c0.644,0,0.838,0,0.838-0.664c0-0.498,0.352-0.845,0.854-0.845c0.48,0,0.966,0.325,0.966,0.946
							c0,2.23-1.898,2.23-2.709,2.23c-0.787,0-2.251,0-2.251-1.619c0-0.132,0.001-0.37,0.005-0.643
							C38.531,9.569,36.021,10.036,35.574,10.036z M38.037,5.169c0.215,0.04,0.791,0.04,1.554,0.04c0.527,0,1.064-0.011,1.52-0.021
							c0.035-0.002,0.058-0.006,0.072-0.009c-0.022-0.009-0.01-0.106-0.01-0.34c0-0.15,0-0.292-0.008-0.427
							c-0.207-0.034-0.719-0.034-1.391-0.034c-0.589,0-1.188,0.01-1.663,0.021c-0.071,0.013-0.082,0.15-0.082,0.379
							C38.029,4.914,38.029,5.05,38.037,5.169z"/>
					</g>
					<g>
						<path d="M49.981,9.944c-0.577,0-0.902-0.391-0.935-0.779c-0.052,0.077-0.105,0.15-0.162,0.223
							c-0.2,0.256-0.492,0.403-0.8,0.403c-0.502,0-0.926-0.4-0.926-0.874c0-0.209,0.091-0.424,0.258-0.604
							c0.521-0.557,0.772-1.411,0.772-2.616c0-0.271-0.012-0.514-0.021-0.719l-0.009-0.193c0-0.722,0.511-1.437,1.459-1.451
							l0.419-0.004c-0.02-0.022-0.04-0.046-0.06-0.068c-0.15-0.156-0.219-0.324-0.219-0.5c0-0.028,0.001-0.057,0.005-0.084h-0.771
							c-0.464,0-0.813-0.354-0.813-0.823c0-0.4,0.304-0.813,0.813-0.813h2.296V0.936c0-0.503,0.394-0.874,0.915-0.874
							c0.528,0,0.926,0.371,0.926,0.864L53.127,1.04h2.226c0.458,0,0.804,0.354,0.804,0.823c0,0.464-0.346,0.813-0.804,0.813h-0.85
							c0.008,0.044,0.012,0.089,0.012,0.135c0,0.11-0.025,0.258-0.164,0.515l1.41,0.007c0.464,0,0.813,0.346,0.813,0.804
							c0,0.45-0.353,0.803-0.804,0.803c-0.303-0.006-0.598-0.008-0.891-0.009c-0.017,0.088-0.049,0.173-0.095,0.251
							c0.42,0.041,0.749,0.384,0.749,0.8c0,0.161-0.045,0.313-0.13,0.449c0.044-0.006,0.088-0.009,0.132-0.009
							c0.479,0,0.854,0.37,0.854,0.844c0,0.296-0.143,0.567-0.401,0.764C53.583,9.891,50.343,9.944,49.981,9.944z M49.652,7.809
							c-0.058,0.207-0.124,0.403-0.2,0.59c0.137-0.083,0.307-0.137,0.508-0.142c0.05-0.002,0.099-0.004,0.148-0.006
							C49.883,8.165,49.729,8,49.652,7.809z M49.885,6.502c-0.014,0.146-0.03,0.289-0.05,0.428c0.105-0.105,0.241-0.186,0.398-0.23
							C50.095,6.66,49.978,6.591,49.885,6.502z M49.975,4.95l-0.052,0.237l0.002,0.124c0.132-0.111,0.31-0.191,0.538-0.214
							c0.327-0.029,0.665-0.084,1.003-0.159C50.954,4.942,50.456,4.946,49.975,4.95z M52.404,3.323
							c0.098-0.182,0.198-0.406,0.288-0.646h-1.021c0.158,0.202,0.307,0.432,0.381,0.646H52.404z"/>
					</g>
					<g>
						<path d="M65.888,8.089c-0.172,0-0.332-0.067-0.461-0.194l-1.881-1.927c-0.44,0.452-1.859,1.92-1.859,1.92
							c-0.133,0.134-0.293,0.201-0.467,0.201c-0.386,0-0.712-0.335-0.712-0.731c0-0.174,0.067-0.335,0.189-0.455
							c0.263-0.259,0.557-0.544,0.859-0.836c0.354-0.344,0.721-0.697,1.059-1.032c-0.321-0.318-0.691-0.677-1.053-1.027
							c-0.306-0.296-0.605-0.586-0.865-0.842c-0.126-0.123-0.2-0.297-0.2-0.466c0-0.385,0.338-0.722,0.723-0.722
							c0.166,0,0.339,0.073,0.463,0.196l1.871,1.909l1.868-1.906c0.126-0.126,0.299-0.199,0.466-0.199
							c0.385,0,0.722,0.337,0.722,0.722c0,0.166-0.073,0.34-0.197,0.464l-0.841,0.816c-0.368,0.357-0.746,0.723-1.074,1.048
							l1.912,1.875c0.123,0.123,0.189,0.284,0.189,0.455C66.599,7.754,66.273,8.089,65.888,8.089z"/>
					</g>
					<g>
						<path d="M76.163,9.935c-2.098,0-3.053-0.24-3.989-1.082c-0.694,0.735-1.157,1.041-1.556,1.041
							c-0.51,0-0.956-0.437-0.956-0.936c0-0.305,0.167-0.572,0.459-0.734c0.495-0.274,0.878-0.56,1.165-0.867l0.002-0.099
							c0.008-0.355,0.016-0.677,0.016-0.991V5.95c-0.021,0-0.472-0.001-0.472-0.001c-0.863,0-0.956-0.583-0.956-0.834
							c0-0.42,0.308-0.854,0.823-0.854c0.372,0,0.66,0,1.001,0.01c1.109,0.034,1.342,0.756,1.342,1.354
							c0,0.29-0.019,1.515-0.02,1.802c0.154,0.171,0.337,0.31,0.558,0.421c-0.2-0.22-0.316-0.513-0.33-0.862
							c-0.011-0.482-0.021-0.953-0.021-1.432c0-0.478,0.01-0.964,0.019-1.433c0.013-0.558,0.256-0.885,0.573-1.077h-0.39
							c-0.155,0-0.298-0.036-0.42-0.102c-0.172,0.28-0.479,0.479-0.804,0.479c-0.277,0-0.534-0.151-0.686-0.406
							c-0.247-0.379-0.718-0.667-0.855-0.746c-0.257-0.146-0.403-0.387-0.403-0.66c0-0.455,0.428-0.854,0.915-0.854
							c0.333,0,1.15,0.432,1.623,0.962c0.144-0.16,0.358-0.269,0.63-0.269h0.392l-0.02-0.025c-0.094-0.138-0.136-0.264-0.136-0.395
							c0-0.456,0.468-0.763,0.905-0.763c0.657,0,1.118,0.812,1.183,1.183h0.072c0.1-0.204,0.195-0.421,0.333-0.776
							c0.118-0.294,0.393-0.467,0.736-0.467c0.467,0,0.966,0.322,0.966,0.803c0,0.104-0.026,0.216-0.146,0.44h0.749
							c0.535,0,0.824,0.408,0.824,0.793c0,0.458-0.354,0.804-0.824,0.804h-0.579c0.343,0.223,0.559,0.57,0.577,0.983
							c0.021,0.484,0.03,0.99,0.03,1.495c0,0.495-0.01,0.99-0.03,1.455c-0.021,0.489-0.304,0.901-0.733,1.128
							c0.155-0.013,0.879-0.072,0.88-0.072c0.586,0,0.965,0.38,0.965,0.884c0,0.482-0.358,0.85-0.872,0.894
							C78.316,9.848,77.283,9.935,76.163,9.935z"/>
					</g>
					<g>
						<path d="M84.085,10.036c-0.493,0-0.864-0.358-0.864-0.834l0.095-2.861c-0.249,0.164-0.399,0.209-0.576,0.209
							c-0.487,0-0.884-0.406-0.884-0.905c0-0.312,0.16-0.584,0.439-0.749c0.429-0.249,0.861-0.603,1.259-1.021
							c-0.255,0.156-0.492,0.25-0.691,0.25c-0.445,0-0.905-0.319-0.905-0.854c0-0.186,0.068-0.538,0.525-0.816
							c0.715-0.413,1.343-1.049,1.824-1.845c0.174-0.284,0.445-0.445,0.747-0.445c0.491,0,0.905,0.409,0.905,0.895
							c0,0.186-0.062,0.376-0.176,0.535c-0.124,0.18-0.271,0.374-0.432,0.573c0.03,0.004,0.06,0.009,0.089,0.016
							c0.096-0.347,0.421-0.602,0.806-0.602c0.122,0,0.255,0.037,0.373,0.083c0.249-0.301,0.484-0.674,0.665-1.059
							c0.129-0.276,0.393-0.441,0.705-0.441c0.452,0,0.956,0.354,0.956,0.864c0,0.358-0.496,1.028-0.958,1.527
							c0.01,0.009,0.02,0.018,0.03,0.026c0.312-0.357,0.59-0.72,0.802-1.046c0.154-0.239,0.424-0.383,0.72-0.383
							c0.51,0,0.925,0.373,0.925,0.833c0,0.222-0.162,0.514-0.399,0.821c0.668,0.181,1.878,1.342,1.878,2.003
							c0,0.485-0.405,0.895-0.885,0.895c-0.311,0-0.573-0.156-0.739-0.44c-0.033-0.054-0.063-0.103-0.093-0.149
							c-0.108,0.021-0.217,0.04-0.327,0.06c0.392,0.16,0.637,0.508,0.637,0.95c0,0.476-0.405,1.132-0.777,1.612
							c0.41,0.199,0.887,0.334,1.42,0.4c0.426,0.052,0.724,0.394,0.724,0.831c0,0.455-0.35,0.926-0.936,0.926
							c-0.255,0-1.361-0.166-2.446-0.946c-1.215,0.886-2.386,1.079-2.579,1.079c-0.554,0-0.885-0.439-0.885-0.864
							c0-0.204,0.074-0.39,0.204-0.531c-0.09-0.02-0.176-0.054-0.253-0.1l-0.017,0.66C84.975,9.683,84.594,10.036,84.085,10.036z
							 M87.125,7.482c-0.202,0.219-0.464,0.483-0.738,0.705c0.31-0.115,0.613-0.271,0.904-0.462
							C87.232,7.645,87.177,7.563,87.125,7.482z M85.042,7.077c0.643-0.445,1.051-0.848,1.487-1.503
							c-0.301,0.021-0.603,0.038-0.833,0.038c-0.252,0-0.47-0.114-0.611-0.3L85.042,7.077z M86.16,3.271
							c-0.025,0.103-0.069,0.202-0.134,0.299c-0.096,0.137-0.191,0.269-0.288,0.396c0.275-0.001,0.551-0.009,0.825-0.017
							c0,0,0.169-0.13,0.252-0.195C86.604,3.567,86.381,3.404,86.16,3.271z"/>
					</g>
					<g>
						<path d="M95.826,9.7c-0.508,0-0.936-0.41-0.936-0.896c0-0.178,0.059-0.357,0.172-0.521c0.478-0.648,0.931-1.513,1.248-2.379
							c0.14-0.347,0.449-0.554,0.811-0.554c0.31,0,0.577,0.146,0.735,0.372c0.154-0.304,0.458-0.58,1.039-0.651
							c-0.518-0.165-0.878-0.5-0.906-1.174c-0.01-0.186-0.01-0.386-0.01-0.598c0-0.144,0.001-0.288,0.004-0.431
							c-0.172,0.187-0.412,0.306-0.669,0.306c-0.169,0-0.419-0.052-0.647-0.301c-0.379-0.424-0.61-0.552-0.961-0.746
							c-0.264-0.142-0.418-0.381-0.418-0.653c0-0.472,0.442-0.885,0.946-0.885c0.349,0,1.364,0.478,1.802,1.087
							c0.104-0.518,0.511-1.016,1.396-1.066c0.442-0.03,0.951-0.041,1.439-0.041c0.5,0,0.979,0.011,1.386,0.042
							c0.711,0.04,1.322,0.578,1.354,1.2l0.009,0.341c0.01,0.362,0.021,0.786,0.021,1.157c0,0.223,0,0.414-0.01,0.584
							c-0.022,0.562-0.36,1-0.882,1.194c0.67,0.121,1.081,0.567,1.116,1.239c0.02,0.404,0.03,0.839,0.03,1.305l-0.005,0.411
							c0.501,0.036,0.77,0.436,0.77,0.812c0,0.47-0.362,0.824-0.844,0.824H97.59c-0.469,0-0.753-0.275-0.838-0.597
							c-0.033,0.051-0.066,0.101-0.1,0.149C96.451,9.533,96.156,9.7,95.826,9.7z M97.684,7.248
							c-0.106,0.261-0.233,0.548-0.374,0.835c0.085-0.026,0.179-0.041,0.28-0.041h0.1C97.689,8.042,97.684,7.274,97.684,7.248z
							 M99.728,3.646c0.25,0.044,0.847,0.044,1.062,0.044c0.349,0,0.851,0,1.053-0.044H99.728z M96.846,5.327
							c-0.199,0-0.377-0.065-0.544-0.2c-0.395-0.312-0.648-0.427-1.066-0.562c-0.328-0.11-0.538-0.394-0.538-0.724
							c0-0.424,0.371-0.896,0.904-0.896c0.008,0,0.787,0.028,1.732,0.67c0.257,0.177,0.396,0.44,0.396,0.745
							C97.73,4.876,97.317,5.327,96.846,5.327z"/>
					</g>
					<g>
						<path d="M111.23,10.026c-0.41,0-1.457,0-1.586-0.805c-0.518,0.392-0.975,0.59-1.207,0.59c-0.51,0-0.956-0.432-0.956-0.925
							c0-0.311,0.187-0.579,0.499-0.719c0.878-0.374,1.425-0.975,1.7-1.372c-0.377,0.002-0.78,0.011-1.014,0.02h-0.001
							c-0.483,0-0.828-0.346-0.828-0.804c0-0.457,0.334-0.816,0.777-0.834c0.222-0.008,0.587-0.01,0.957-0.01
							c-0.416-0.221-0.667-0.606-0.704-1.114c-0.011-0.264-0.021-0.543-0.021-0.835c0-0.274,0.01-0.559,0.02-0.823
							c0.031-0.812,0.627-1.342,1.518-1.366c0.236-0.008,0.442-0.015,0.644-0.018c0.026-0.104,0.052-0.209,0.065-0.301
							C111.181,0.278,111.546,0,112.005,0c0.47,0,0.956,0.304,0.956,0.813c0,0.044-0.004,0.103-0.022,0.188
							c0.423,0.005,0.854,0.014,1.281,0.028c0.814,0.025,1.416,0.547,1.463,1.268c0.021,0.235,0.03,0.523,0.03,0.8
							c0,0.327-0.01,0.652-0.031,0.937c-0.014,0.247-0.085,0.471-0.204,0.661c0.407,0.081,0.735,0.462,0.735,0.89
							c0,0.204-0.069,0.496-0.401,0.73c-0.323,0.228-0.689,0.453-1.095,0.674c0.521,0.435,1.085,0.752,1.655,0.929
							c0.375,0.119,0.605,0.42,0.605,0.786c0,0.462-0.389,0.956-0.967,0.956c-0.388,0-1.623-0.456-2.824-1.824l0.009,0.431
							C113.195,9.094,112.681,10.026,111.23,10.026z M110.82,8.212c0.152,0.035,0.326,0.075,0.461,0.075
							c0.115,0,0.147-0.023,0.148-0.024c0,0,0.023-0.031,0.026-0.14c0.012-0.356,0.017-0.74,0.019-1.121
							c-0.227,0.447-0.491,0.843-0.769,1.185L110.82,8.212z M113.363,5.394c0.067,0.115,0.137,0.226,0.209,0.331
							c0.174-0.106,0.352-0.222,0.53-0.346C114.103,5.379,113.568,5.391,113.363,5.394z M111.35,5.396
							c0.045,0.026,0.086,0.057,0.125,0.09c0-0.03-0.001-0.06-0.001-0.089C111.433,5.396,111.392,5.396,111.35,5.396z"/>
					</g>
				</g>
			</g>
			<g>
				<path class="st0" d="M4.799,9.243C4.35,9.264,3.8,9.264,3.26,9.264c-0.53,0-1.06,0-1.478-0.02
					C0.895,9.213,0.457,8.764,0.426,8.01c-0.02-0.663-0.031-1.773-0.031-2.885c0-0.989,0.01-1.988,0.031-2.671
					c0.02-0.652,0.509-1.08,1.274-1.111c0.387-0.01,1.05-0.02,1.702-0.02c0.54,0,1.07,0.01,1.417,0.02
					c0.622,0.02,1.223,0.459,1.243,1.193c0.02,0.622,0.031,1.641,0.031,2.66c0,1.121-0.01,2.242-0.031,2.783
					C6.042,8.693,5.533,9.213,4.799,9.243z M5.094,4.554c0-0.642-0.01-1.233-0.02-1.641C5.053,2.21,4.901,2.2,3.27,2.2
					c-1.723,0-1.865,0.01-1.896,0.713c-0.01,0.418-0.02,0.999-0.02,1.641H5.094z M1.354,5.451c0,0.856,0,1.672,0.02,2.161
					c0.02,0.663,0.133,0.703,1.865,0.703c0.397,0,0.805,0,1.07-0.01C4.88,8.285,5.053,8.02,5.074,7.582
					c0.02-0.51,0.02-1.315,0.02-2.13H1.354z"/>
				<path class="st0" d="M11.829,1.252c0-0.306,0.245-0.459,0.489-0.459c0.255,0,0.5,0.153,0.5,0.459v2.345h1.763
					c0.296,0,0.449,0.224,0.449,0.459c0,0.224-0.153,0.459-0.449,0.459h-1.763v3.456c0.591-0.163,1.121-0.347,1.539-0.52
					c0.082-0.03,0.153-0.051,0.224-0.051c0.255,0,0.438,0.204,0.438,0.428c0,0.173-0.112,0.357-0.387,0.479
					c-1.366,0.591-3.272,1.07-3.659,1.07c-0.347,0-0.52-0.234-0.52-0.479c0-0.234,0.163-0.469,0.489-0.52
					c0.296-0.051,0.592-0.102,0.887-0.163V1.252z M18.322,7.205c0-0.326,0.224-0.479,0.469-0.479c0.133,0,0.551,0.051,0.551,0.54
					c0,1.967-1.009,2.028-2.151,2.028c-0.907,0-1.855-0.092-1.855-1.274c0-0.428,0-6.473,0.02-6.789
					c0.02-0.286,0.255-0.418,0.489-0.418c0.245,0,0.479,0.153,0.489,0.438c0,0.194,0,1.335-0.01,2.62
					c0.652-0.336,1.417-0.795,1.947-1.193c0.082-0.061,0.173-0.092,0.265-0.092c0.275,0,0.52,0.275,0.52,0.561
					c0,0.163-0.082,0.326-0.275,0.459c-0.663,0.428-1.764,0.948-2.467,1.223c-0.01,1.458-0.03,2.844-0.03,3.038
					c0.02,0.387,0.306,0.489,0.927,0.489c0.764,0,1.111-0.031,1.111-1.08c0-0.02,0-0.041,0-0.061V7.205z"/>
				<path class="st0" d="M25.807,6.725v0.907c0.499-0.112,0.968-0.245,1.386-0.377c0.041-0.01,0.081-0.02,0.122-0.02
					c0.214,0,0.357,0.194,0.357,0.398c0,0.163-0.092,0.326-0.296,0.408c-1.407,0.52-3.7,0.917-3.945,0.917
					c-0.286,0-0.449-0.234-0.449-0.469c0-0.214,0.122-0.408,0.387-0.438c0.53-0.051,1.05-0.133,1.549-0.224V6.736l-1.295,0.01h-0.01
					c-0.255,0-0.388-0.194-0.388-0.387c0-0.204,0.133-0.408,0.398-0.408l1.305-0.01V5.115c-0.234-0.01-0.469-0.02-0.673-0.031
					c-0.54-0.041-0.917-0.316-0.948-0.846c-0.01-0.347-0.02-0.744-0.02-1.152c0-0.418,0.01-0.836,0.02-1.203
					c0.02-0.459,0.245-0.928,1.009-0.958c0.367-0.02,0.724-0.02,1.09-0.02c0.367,0,0.734,0,1.091,0.02
					C27,0.946,27.367,1.252,27.398,1.7c0.03,0.479,0.051,0.938,0.051,1.396c0,0.387-0.01,0.764-0.041,1.142
					c-0.041,0.51-0.367,0.795-0.989,0.846c-0.183,0.01-0.397,0.02-0.612,0.031V5.93l1.295-0.01h0.01
					c0.245,0,0.377,0.194,0.377,0.387c0,0.204-0.133,0.397-0.387,0.408L25.807,6.725z M24.951,1.67c-0.815,0-0.815,0-0.815,0.958
					h0.815V1.67z M24.951,3.372h-0.815c0,0.234,0.01,0.469,0.02,0.683c0.02,0.265,0.193,0.316,0.795,0.316V3.372z M26.602,2.628
					c0-0.234-0.02-0.449-0.03-0.642c-0.02-0.316-0.173-0.316-0.785-0.316v0.958H26.602z M25.787,3.372v0.999
					c0.805,0,0.815,0,0.815-0.999H25.787z M29.202,4.819c-0.428,0.01-0.866,0.02-1.254,0.02h-0.01c-0.286,0-0.428-0.204-0.428-0.408
					c0-0.214,0.153-0.428,0.438-0.428c0.54-0.01,1.111-0.01,1.672-0.01c-0.031-0.02-0.051-0.051-0.082-0.092
					c-0.255-0.347-0.703-0.571-0.968-0.703c-0.143-0.072-0.194-0.173-0.194-0.275c0-0.214,0.224-0.438,0.489-0.438
					c0.173,0,0.459,0.153,0.622,0.255c0.214-0.184,0.785-0.764,0.785-0.846c0-0.031-0.02-0.051-0.072-0.051
					c-0.581,0-1.305,0.051-1.977,0.071c-0.01,0-0.01,0-0.02,0c-0.286,0-0.428-0.214-0.428-0.428s0.143-0.428,0.438-0.438
					c0.561-0.01,1.193-0.02,1.815-0.02c0.224,0,0.459,0,0.673,0c0.52,0,0.825,0.286,0.825,0.632c0,0.214-0.102,0.591-1.356,1.59
					c0.02,0.02,0.041,0.031,0.051,0.051c0.082,0.092,0.112,0.183,0.112,0.275c0,0.163-0.112,0.326-0.245,0.418
					c0.398,0,0.775,0.01,1.091,0.01c0.55,0.01,0.877,0.326,0.877,0.795c0,0.499-0.571,1.427-0.591,1.447
					c-0.143,0.184-0.326,0.265-0.51,0.265c-0.255,0-0.479-0.163-0.479-0.387c0-0.072,0.02-0.153,0.081-0.234
					c0.061-0.081,0.479-0.734,0.479-0.917c0-0.163-0.153-0.163-0.917-0.163v1.926l0.02,1.437c0,0.01,0,0.02,0,0.02
					c0,0.581-0.316,1.325-1.468,1.325c-0.581,0-1.019-0.071-1.019-0.581c0-0.234,0.133-0.459,0.387-0.459
					c0.031,0,0.072,0,0.102,0.01c0.183,0.041,0.367,0.071,0.52,0.071c0.326,0,0.54-0.133,0.54-0.612V4.819z"/>
				<path class="st0" d="M35.574,9.641c-0.336,0-0.53-0.245-0.53-0.479c0-0.204,0.143-0.418,0.469-0.459
					c1.427-0.194,2.354-0.846,2.711-1.845c0.092-0.245,0.276-0.347,0.469-0.347c0.265,0,0.551,0.204,0.551,0.469
					c0,0.051-0.01,0.102-0.031,0.153C38.439,9.253,35.809,9.641,35.574,9.641z M40.069,2.505v0.703c0.489,0,0.968,0.01,1.407,0.02
					c0.621,0.01,1.05,0.408,1.08,0.816c0.01,0.194,0.02,0.418,0.02,0.663c0,0.234-0.01,0.479-0.02,0.703
					c-0.031,0.489-0.449,0.917-1.131,0.938c-0.194,0.01-0.377,0.01-0.571,0.01c-0.01,0.469-0.041,1.183-0.041,1.57
					c0,0.397,0.01,0.622,0.948,0.622c0.621,0,1.233,0,1.233-1.06c0-0.316,0.224-0.449,0.459-0.449c0.255,0,0.571,0.153,0.571,0.55
					c0,1.804-1.417,1.835-2.314,1.835c-0.948,0-1.855-0.061-1.855-1.223c0-0.326,0.01-1.305,0.03-1.835c-0.714,0-1.417,0-2.059-0.02
					c-0.744-0.02-1.121-0.398-1.152-0.928c-0.01-0.204-0.01-0.397-0.01-0.591c0-0.255,0-0.499,0.01-0.703
					c0.02-0.428,0.326-0.877,1.132-0.897c0.357-0.01,0.805-0.02,1.284-0.02V2.505l-2.956,0.01c-0.306,0-0.459-0.214-0.459-0.438
					c0-0.214,0.153-0.428,0.459-0.428l2.956,0.01V1.048c0-0.285,0.245-0.428,0.489-0.428c0.244,0,0.499,0.143,0.499,0.428
					l-0.01,0.612l3.078-0.01c0.306,0,0.459,0.214,0.459,0.428c0,0.224-0.153,0.438-0.459,0.438L40.069,2.505z M41.568,4.84
					c0-0.173,0-0.336-0.01-0.489c-0.02-0.367-0.183-0.367-1.784-0.367c-0.591,0-1.193,0.01-1.672,0.02
					c-0.428,0.01-0.469,0.224-0.469,0.775c0,0.153,0,0.306,0.01,0.438c0.031,0.387,0.163,0.387,1.947,0.387
					c0.53,0,1.07-0.01,1.529-0.02C41.507,5.563,41.568,5.421,41.568,4.84z"/>
				<path class="st0" d="M55.761,4.544c-0.459-0.01-0.917-0.01-1.376-0.01c0.071,0.072,0.112,0.163,0.112,0.255
					c0,0.143-0.082,0.296-0.296,0.408c-1.376,0.754-3.282,1.142-3.71,1.142c-0.296,0-0.459-0.204-0.459-0.408
					s0.153-0.408,0.469-0.438C51.5,5.4,52.723,5.074,53.742,4.534c-1.325,0-2.599,0.01-3.771,0.02c-0.316,0-0.449,0.183-0.449,0.428
					c0,0.143,0.01,0.326,0.01,0.54c0,0.979-0.112,2.548-0.958,3.619c-0.143,0.183-0.326,0.255-0.489,0.255
					c-0.276,0-0.53-0.214-0.53-0.479c0-0.102,0.051-0.224,0.153-0.336c0.744-0.795,0.877-1.967,0.877-2.885
					c0-0.367-0.02-0.683-0.03-0.928c0-0.01,0-0.02,0-0.041c0-0.479,0.377-0.989,1.07-0.999c0.377,0,0.775-0.01,1.172-0.01
					c-0.153-0.306-0.357-0.53-0.561-0.764c-0.061-0.061-0.081-0.133-0.081-0.194c0-0.204,0.265-0.387,0.52-0.387
					c0.081,0,0.163,0.02,0.234,0.071c0.153,0.102,0.795,0.805,0.795,1.132c0,0.051-0.01,0.102-0.031,0.143h0.958
					c0.204-0.316,0.387-0.764,0.499-1.091c0.071-0.214,0.234-0.296,0.418-0.296c0.275,0,0.571,0.214,0.571,0.479
					c0,0.255-0.479,0.877-0.499,0.907c0.713,0,1.427,0.01,2.14,0.01c0.275,0,0.418,0.204,0.418,0.408
					c0,0.204-0.143,0.408-0.408,0.408H55.761z M48.992,2.281c-0.275,0-0.418-0.214-0.418-0.428c0-0.204,0.143-0.418,0.418-0.418
					h2.691v-0.5v-0.01c0-0.316,0.265-0.469,0.52-0.469c0.265,0,0.53,0.163,0.53,0.469v0.01l-0.01,0.5h2.63
					c0.275,0,0.408,0.214,0.408,0.428c0,0.204-0.133,0.418-0.408,0.418H48.992z M49.981,9.549c-0.357,0-0.54-0.224-0.54-0.449
					c0-0.214,0.173-0.438,0.53-0.449c2.283-0.071,3.945-0.693,5.127-1.661c0.153-0.122,0.306-0.173,0.439-0.173
					c0.265,0,0.459,0.204,0.459,0.449c0,0.153-0.071,0.316-0.245,0.449C53.589,9.386,50.674,9.549,49.981,9.549z M50.471,7.918
					c-0.326,0-0.479-0.204-0.479-0.408s0.143-0.408,0.439-0.449c1.346-0.183,2.65-0.52,3.935-1.376
					c0.112-0.082,0.234-0.112,0.336-0.112c0.255,0,0.438,0.194,0.438,0.408c0,0.143-0.071,0.306-0.265,0.428
					C53.263,7.48,50.888,7.918,50.471,7.918z"/>
				<path class="st1" d="M65.704,7.612c-0.622-0.632-1.386-1.427-2.039-2.09c-0.03-0.041-0.081-0.051-0.122-0.051
					s-0.082,0.01-0.112,0.051c-0.652,0.663-1.417,1.458-2.028,2.09c-0.061,0.061-0.123,0.081-0.183,0.081
					c-0.173,0-0.316-0.163-0.316-0.336c0-0.061,0.02-0.122,0.072-0.173c0.621-0.612,1.417-1.366,2.079-2.028
					c0.041-0.041,0.051-0.082,0.051-0.122c0-0.041-0.02-0.092-0.051-0.122c-0.612-0.612-1.458-1.417-2.079-2.029
					c-0.051-0.051-0.082-0.122-0.082-0.183c0-0.163,0.163-0.326,0.326-0.326c0.061,0,0.132,0.031,0.183,0.081
					c0.621,0.632,1.396,1.427,2.028,2.069c0.041,0.041,0.071,0.061,0.122,0.061c0.031,0,0.082-0.02,0.123-0.061
					c0.632-0.642,1.406-1.437,2.028-2.069c0.051-0.051,0.122-0.081,0.183-0.081c0.163,0,0.326,0.163,0.326,0.326
					c0,0.061-0.031,0.133-0.082,0.183c-0.622,0.612-1.468,1.417-2.079,2.029c-0.031,0.03-0.041,0.071-0.041,0.112
					c0,0.051,0.02,0.102,0.061,0.143c0.663,0.652,1.448,1.417,2.059,2.018c0.051,0.051,0.071,0.112,0.071,0.173
					c0,0.173-0.143,0.336-0.316,0.336C65.826,7.694,65.765,7.673,65.704,7.612z"/>
				<path class="st0" d="M70.618,9.498c-0.296,0-0.561-0.265-0.561-0.54c0-0.143,0.071-0.286,0.255-0.387
					c0.551-0.306,1.019-0.652,1.366-1.06c0.01-0.459,0.02-0.856,0.02-1.244c0-0.143,0-0.275,0-0.418
					c0-0.265-0.123-0.296-0.469-0.296c-0.143,0-0.265,0-0.398,0c-0.193,0-0.561-0.01-0.561-0.438c0-0.224,0.153-0.459,0.428-0.459
					c0.367,0,0.652,0,0.989,0.01c0.652,0.02,0.958,0.306,0.958,0.958c0,0.591-0.02,1.295-0.02,1.947
					c0.642,0.816,1.692,1.03,3.109,1.03c1.02,0,2.131-0.112,2.905-0.173c0.02,0,0.031,0,0.051,0c0.316,0,0.489,0.245,0.489,0.489
					c0,0.234-0.153,0.469-0.509,0.499c-0.642,0.061-1.58,0.122-2.508,0.122c-2.212,0-3.048-0.265-4.006-1.254
					C71.648,8.856,71.016,9.498,70.618,9.498z M71.862,2.811c-0.265-0.408-0.714-0.724-0.999-0.887
					c-0.143-0.081-0.204-0.194-0.204-0.316c0-0.224,0.244-0.459,0.52-0.459c0.306,0,1.58,0.785,1.58,1.305
					c0,0.296-0.275,0.571-0.551,0.571C72.086,3.025,71.954,2.964,71.862,2.811z M76.265,2.648c-0.041,0.173-0.092,0.357-0.133,0.51
					c0.336,0,0.642,0.01,0.877,0.02c0.662,0.03,1.04,0.418,1.06,0.866c0.02,0.479,0.03,0.979,0.03,1.478
					c0,0.489-0.01,0.979-0.03,1.437c-0.02,0.489-0.428,0.907-1.06,0.938c-0.286,0.01-0.663,0.02-1.05,0.02
					c-0.469,0-0.948-0.01-1.274-0.02c-0.693-0.02-1.02-0.408-1.04-0.927c-0.01-0.449-0.02-0.928-0.02-1.417
					c0-0.5,0.01-1.009,0.02-1.498c0.02-0.887,0.979-0.887,1.529-0.887c0.041-0.163,0.071-0.316,0.102-0.52h-1.845
					c-0.286,0-0.439-0.204-0.439-0.408c0-0.194,0.153-0.397,0.439-0.397h1.131c-0.02-0.02-0.03-0.041-0.041-0.071
					c-0.163-0.326-0.316-0.469-0.397-0.581c-0.041-0.061-0.061-0.112-0.061-0.163c0-0.204,0.265-0.367,0.51-0.367
					c0.418,0,0.795,0.703,0.795,0.866c0,0.122-0.061,0.234-0.153,0.316h0.856c0.153-0.296,0.265-0.53,0.459-1.03
					c0.061-0.153,0.204-0.214,0.367-0.214c0.265,0,0.571,0.173,0.571,0.408c0,0.092-0.143,0.357-0.449,0.836h1.448
					c0.285,0,0.428,0.204,0.428,0.397c0,0.204-0.143,0.408-0.428,0.408H76.265z M77.152,5.196h-2.609v0.622h2.609V5.196z
					 M77.132,4.249c-0.02-0.387-0.071-0.387-1.335-0.387c-1.06,0-1.213,0-1.233,0.398c0,0.071-0.01,0.143-0.01,0.224h2.589
					L77.132,4.249z M74.553,6.522c0,0.102,0.01,0.204,0.01,0.296c0.02,0.377,0.224,0.387,1.121,0.387c1.366,0,1.437,0,1.447-0.398
					c0-0.092,0.01-0.183,0.01-0.285H74.553z"/>
				<path class="st0" d="M83.739,5.523c-0.693,0.561-0.846,0.632-0.999,0.632c-0.285,0-0.489-0.255-0.489-0.51
					c0-0.153,0.071-0.306,0.245-0.408c0.877-0.51,1.753-1.407,2.375-2.446c0.102-0.163,0.245-0.234,0.387-0.234
					c0.276,0,0.53,0.265,0.53,0.52c0,0.092-0.03,0.183-0.092,0.275C85.38,3.8,85.053,4.208,84.707,4.585l-0.112,4.597
					c-0.01,0.306-0.255,0.459-0.51,0.459c-0.234,0-0.469-0.143-0.469-0.438c0-0.01,0-0.01,0-0.02L83.739,5.523z M82.862,3.729
					c-0.234,0-0.51-0.153-0.51-0.459c0-0.163,0.102-0.336,0.336-0.479c0.795-0.459,1.458-1.152,1.957-1.978
					c0.112-0.183,0.265-0.255,0.408-0.255c0.265,0,0.51,0.224,0.51,0.499c0,0.092-0.03,0.204-0.102,0.306
					C84.636,2.556,83.372,3.729,82.862,3.729z M88.071,5.502c0.459-0.01,1.132-0.03,1.305-0.03c0.489,0,0.764,0.285,0.764,0.652
					c0,0.408-0.509,1.193-0.988,1.723c0.509,0.336,1.162,0.581,1.977,0.683c0.255,0.031,0.377,0.224,0.377,0.438
					c0,0.255-0.183,0.53-0.54,0.53c-0.224,0-1.396-0.194-2.446-1.05c-1.223,0.989-2.466,1.182-2.579,1.182
					c-0.316,0-0.489-0.234-0.489-0.469c0-0.184,0.122-0.357,0.367-0.408c0.785-0.143,1.478-0.51,2.039-0.948
					c-0.275-0.326-0.499-0.663-0.662-1.009c-0.469,0.602-1.366,1.458-1.753,1.458c-0.265,0-0.469-0.224-0.469-0.459
					c0-0.112,0.051-0.234,0.183-0.316c1.009-0.683,1.488-1.264,2.12-2.365c-0.346,0.031-1.121,0.102-1.58,0.102
					c-0.255,0-0.387-0.214-0.387-0.438c0-0.204,0.122-0.418,0.377-0.418c0.336,0,0.673-0.01,1.009-0.02l0.02-0.01
					c0.224-0.173,0.459-0.347,0.693-0.561c-0.398-0.408-0.877-0.775-1.356-1.009c-0.173-0.092-0.245-0.224-0.245-0.367
					c0-0.214,0.183-0.418,0.438-0.418c0.133,0,0.347,0.102,0.469,0.173c0.377-0.387,0.703-0.897,0.927-1.376
					c0.072-0.153,0.204-0.214,0.347-0.214c0.265,0,0.561,0.214,0.561,0.469c0,0.204-0.51,0.958-1.152,1.56
					c0.234,0.173,0.449,0.367,0.642,0.561c0.428-0.459,0.826-0.958,1.111-1.396c0.092-0.143,0.244-0.204,0.387-0.204
					c0.265,0,0.53,0.183,0.53,0.438c0,0.499-1.722,2.008-2.049,2.273c0.632-0.051,1.243-0.133,1.825-0.214
					c-0.071-0.072-0.153-0.133-0.224-0.194c-0.112-0.092-0.163-0.204-0.163-0.296c0-0.204,0.214-0.377,0.449-0.377
					c0.408,0,1.641,1.162,1.641,1.631c0,0.285-0.245,0.499-0.489,0.499c-0.153,0-0.296-0.071-0.397-0.245
					c-0.082-0.132-0.163-0.265-0.255-0.387c-0.673,0.133-1.437,0.255-2.232,0.347c0.02,0.051,0.03,0.102,0.03,0.153
					c0,0.082-0.02,0.163-0.081,0.255L88.071,5.502z M89.059,6.318c0-0.092-0.081-0.112-0.153-0.112c-0.01,0-0.02,0-0.031,0
					c-0.071,0-0.642,0.02-1.101,0.02c0.163,0.346,0.388,0.693,0.683,1.019C88.683,6.991,89.059,6.491,89.059,6.318z"/>
				<path class="st0" d="M96.55,4.819c-0.449-0.357-0.755-0.489-1.193-0.632c-0.184-0.061-0.265-0.204-0.265-0.346
					c0-0.234,0.214-0.5,0.509-0.5c0.01,0,0.683,0.041,1.509,0.602c0.163,0.112,0.224,0.265,0.224,0.418
					c0,0.285-0.224,0.571-0.489,0.571C96.744,4.932,96.652,4.901,96.55,4.819z M95.826,9.304c-0.285,0-0.54-0.224-0.54-0.499
					c0-0.092,0.031-0.194,0.102-0.296c0.54-0.734,0.999-1.662,1.295-2.467c0.081-0.204,0.255-0.296,0.438-0.296
					c0.245,0,0.489,0.173,0.489,0.459c0,0.204-0.571,1.763-1.284,2.803C96.183,9.223,96,9.304,95.826,9.304z M96.958,2.607
					c-0.418-0.469-0.693-0.622-1.06-0.826c-0.153-0.082-0.214-0.194-0.214-0.306c0-0.244,0.255-0.489,0.551-0.489
					c0.306,0,1.61,0.693,1.61,1.243c0,0.286-0.255,0.55-0.53,0.55C97.192,2.781,97.07,2.73,96.958,2.607z M97.59,9.284
					c-0.326,0-0.469-0.204-0.469-0.408c0-0.214,0.163-0.438,0.469-0.438h0.499c0-0.377-0.01-0.754-0.01-1.111
					c0-0.367,0.01-0.703,0.02-0.979c0.03-0.622,0.397-0.887,1.06-0.897c0.54-0.01,1.213-0.01,1.865-0.01c0.479,0,0.948,0,1.366,0.01
					c0.652,0.01,1.05,0.306,1.08,0.897c0.02,0.397,0.031,0.826,0.031,1.284c0,0.265-0.01,0.53-0.01,0.805h0.326
					c0.306,0,0.449,0.214,0.449,0.418c0,0.214-0.143,0.428-0.449,0.428H97.59z M103.247,3.311c0,0.214,0,0.398-0.01,0.561
					c-0.02,0.51-0.408,0.897-1.04,0.928c-0.459,0.03-0.979,0.041-1.478,0.041c-1.295,0-2.293,0-2.334-0.958
					c-0.01-0.183-0.01-0.377-0.01-0.581c0-0.5,0.02-1.019,0.03-1.397c0.02-0.448,0.326-0.856,1.05-0.897
					c0.438-0.031,0.937-0.041,1.417-0.041c0.489,0,0.958,0.01,1.356,0.041c0.54,0.03,0.968,0.428,0.989,0.826
					C103.227,2.24,103.247,2.821,103.247,3.311z M99.618,6.195h-0.255c-0.204,0-0.367,0.112-0.377,0.296
					c-0.02,0.347-0.03,0.764-0.03,1.193c0,0.255,0.01,0.51,0.01,0.754h0.652V6.195z M99.282,3.25c0,0.163,0.01,0.316,0.02,0.438
					c0.03,0.326,0.122,0.397,1.488,0.397c1.509,0,1.509-0.041,1.509-0.836H99.282z M102.299,2.516c0-0.143-0.02-0.265-0.02-0.367
					c-0.02-0.397-0.275-0.408-1.478-0.408c-1.478,0-1.509,0-1.509,0.775H102.299z M101.066,6.185h-0.612v2.253h0.612V6.185z
					 M102.595,8.438c0-0.173,0-0.347,0-0.52c0-0.52-0.01-1.029-0.03-1.437c-0.01-0.183-0.143-0.285-0.398-0.285h-0.265v2.242
					H102.595z"/>
				<path class="st0" d="M108.641,6.42c-0.275,0-0.408-0.204-0.408-0.408c0-0.214,0.133-0.428,0.398-0.438
					c0.296-0.01,0.856-0.01,1.335-0.01c0.724,0,1.386,0,1.386,0.591c0,0.122-0.041,0.255-0.102,0.398
					c-0.877,1.967-2.497,2.864-2.813,2.864c-0.306,0-0.561-0.275-0.561-0.53c0-0.143,0.082-0.275,0.265-0.357
					c1.509-0.642,2.14-1.906,2.14-2.039c0-0.061-0.051-0.092-0.133-0.092c-0.092,0-0.183,0-0.286,0c-0.428,0-0.937,0.01-1.213,0.02
					H108.641z M112.8,8.275c0,0.01,0,0.01,0,0.02c0,0.622-0.367,1.335-1.57,1.335c-1.05,0-1.203-0.275-1.203-0.581
					c0-0.255,0.173-0.489,0.459-0.489c0.041,0,0.082,0,0.122,0.01c0.194,0.041,0.449,0.112,0.673,0.112
					c0.306,0,0.561-0.112,0.571-0.55c0.02-0.591,0.02-1.264,0.02-1.876c0-0.499,0-0.938-0.01-1.254c-0.459,0-0.917-0.01-1.396-0.02
					c-0.764-0.02-1.162-0.397-1.203-0.958c-0.01-0.245-0.02-0.52-0.02-0.805c0-0.275,0.01-0.561,0.02-0.826
					c0.02-0.53,0.397-0.948,1.131-0.968c0.306-0.01,0.612-0.02,0.938-0.02c0.051-0.194,0.122-0.438,0.153-0.632
					c0.051-0.255,0.286-0.377,0.52-0.377c0.275,0,0.56,0.163,0.56,0.418c0,0.041-0.01,0.184-0.183,0.581
					c0.592,0,1.213,0.01,1.825,0.031c0.652,0.02,1.05,0.428,1.08,0.897c0.02,0.234,0.031,0.51,0.031,0.774
					c0,0.316-0.01,0.632-0.031,0.907c-0.03,0.53-0.418,0.958-1.141,0.979c-0.479,0.01-0.938,0.02-1.396,0.02v0.081
					c0.193,0.397,0.428,0.795,0.713,1.162c0.551-0.306,1.091-0.683,1.59-1.08c0.082-0.071,0.173-0.092,0.265-0.092
					c0.255,0,0.499,0.245,0.499,0.51c0,0.143-0.061,0.285-0.234,0.408c-0.479,0.336-1.02,0.642-1.549,0.907
					c0.632,0.632,1.396,1.142,2.222,1.397c0.224,0.071,0.326,0.234,0.326,0.408c0,0.265-0.234,0.561-0.571,0.561
					c-0.316,0-1.917-0.571-3.262-2.671l0.03,0.714L112.8,8.275z M114.37,2.577c-0.01-0.234-0.143-0.367-0.439-0.377
					c-0.561-0.01-1.131-0.02-1.702-0.02c-0.56,0-1.121,0.01-1.651,0.02c-0.326,0.01-0.418,0.183-0.428,0.387
					c0,0.081-0.01,0.163-0.01,0.245h4.23V2.577z M110.14,3.545c0,0.092,0.01,0.184,0.01,0.275c0.03,0.408,0.041,0.408,1.947,0.408
					c0.601,0,1.223-0.01,1.845-0.031c0.275-0.01,0.418-0.122,0.428-0.387c0-0.081,0.01-0.173,0.01-0.265H110.14z"/>
			</g>
		</g>
		<g>
			<g>
				<path d="M43.954,126.164h-2.063c-0.232,0-0.415,0.179-0.415,0.408c0,0.232,0.182,0.414,0.415,0.414h0.617v2.747
					c0,0.225,0.19,0.414,0.414,0.414c0.225,0,0.414-0.19,0.414-0.414v-2.747h0.617c0.232,0,0.414-0.182,0.414-0.414
					C44.368,126.343,44.186,126.164,43.954,126.164z"/>
				<path d="M46.186,127.087c-0.242,0-0.419,0.061-0.551,0.141v-0.964c0-0.202-0.171-0.372-0.372-0.372
					c-0.202,0-0.372,0.17-0.372,0.372v3.481c0,0.209,0.164,0.372,0.372,0.372c0.209,0,0.372-0.164,0.372-0.372v-1.469
					c0.145-0.272,0.42-0.451,0.545-0.451c0.254,0,0.291,0.292,0.291,0.466v1.454c0,0.209,0.164,0.372,0.372,0.372
					s0.372-0.164,0.372-0.372v-1.394C47.215,127.536,46.85,127.087,46.186,127.087z"/>
				<path d="M50.151,127.099c-0.205,0-0.372,0.167-0.372,0.372v1.297c0,0.179-0.239,0.6-0.701,0.6c-0.277,0-0.418-0.181-0.418-0.539
					v-1.357c0-0.205-0.167-0.372-0.372-0.372c-0.209,0-0.372,0.163-0.372,0.372v1.255c0,0.905,0.415,1.403,1.168,1.403
					c0.26,0,0.518-0.074,0.743-0.212c0.064,0.115,0.187,0.194,0.325,0.194c0.202,0,0.372-0.17,0.372-0.372v-2.268
					C50.523,127.266,50.356,127.099,50.151,127.099z"/>
				<path d="M52.553,128.842h-0.688c-0.225,0-0.414,0.19-0.414,0.414v0.483c0,0.222,0.19,0.408,0.414,0.408h0.688
					c0.225,0,0.414-0.187,0.414-0.408v-0.483C52.967,129.032,52.777,128.842,52.553,128.842z"/>
				<path d="M1.534,128.647c0.392-0.214,1.121-0.612,1.121-1.429c0-0.742-0.54-1.241-1.344-1.241c-0.702,0-1.083,0.305-1.15,0.364
					c-0.176,0.149-0.199,0.392-0.048,0.59c0.079,0.084,0.192,0.133,0.308,0.133c0.097,0,0.193-0.034,0.272-0.097
					c0.091-0.061,0.259-0.174,0.581-0.174c0.213,0,0.569,0.053,0.569,0.406c0,0.289-0.242,0.452-0.556,0.634
					c-0.801,0.432-1.242,1.036-1.242,1.701v0.259c0,0.233,0.136,0.469,0.396,0.469h1.798c0.232,0,0.415-0.182,0.415-0.414
					c0-0.229-0.186-0.414-0.415-0.414H0.888C0.901,129.169,1.147,128.869,1.534,128.647z"/>
				<path d="M5.087,125.953H4.626c-0.622,0-1.197,0.262-1.197,2.164c0,0.91,0.132,1.514,0.403,1.846
					c0.265,0.325,0.614,0.325,0.802,0.325v-0.137l0.072,0.137l0.374,0c0.626,0,1.205-0.263,1.205-2.17
					C6.285,126.215,5.709,125.953,5.087,125.953z M5.14,129.446H4.573c-0.264,0-0.315-0.487-0.315-1.329
					c0-0.841,0.052-1.329,0.315-1.329H5.14c0.264,0,0.316,0.487,0.316,1.329C5.456,128.958,5.404,129.446,5.14,129.446z"/>
				<path d="M8.435,125.953c-0.099,0-0.277,0.055-0.451,0.208l-0.792,0.683c-0.173,0.155-0.191,0.417-0.044,0.583
					c0.078,0.093,0.194,0.146,0.318,0.146c0.101,0,0.197-0.036,0.269-0.101l0.352-0.308v2.708c0,0.225,0.19,0.414,0.414,0.414
					c0.228,0,0.42-0.189,0.42-0.414v-3.547C8.922,126.106,8.722,125.953,8.435,125.953z"/>
				<path d="M11.538,125.971c-0.699,0-1.446,0.394-1.446,1.5c0,0.803,0.596,1.386,1.416,1.386c0,0,0.008,0,0.012,0
					c-0.281,0.375-0.574,0.67-0.669,0.744c-0.079,0.061-0.12,0.159-0.12,0.289c0,0.232,0.182,0.414,0.414,0.414
					c0.107,0,0.216-0.044,0.305-0.134c0.561-0.559,1.503-1.646,1.503-2.645C12.954,126.046,11.775,125.971,11.538,125.971z
					 M11.49,128.052c-0.14,0-0.599-0.046-0.599-0.642c0-0.504,0.462-0.618,0.623-0.618c0.189,0,0.629,0.065,0.629,0.66
					C12.143,128.009,11.643,128.052,11.49,128.052z"/>
				<path d="M15.447,126.085c-0.052-0.023-0.106-0.034-0.161-0.034c-0.16,0-0.303,0.097-0.364,0.246l-1.436,3.511
					c-0.082,0.199,0.015,0.435,0.222,0.529c0.047,0.018,0.095,0.028,0.145,0.028c0.158,0,0.305-0.098,0.376-0.254l1.436-3.511
					c0.04-0.098,0.039-0.206-0.003-0.305C15.619,126.199,15.542,126.124,15.447,126.085z"/>
				<path d="M19.469,125.261h-0.35l0.059-0.965h2.088c0.342,0,0.632-0.289,0.632-0.632c0-0.337-0.295-0.632-0.632-0.632h-2.744
					c-0.287,0-0.483,0.218-0.524,0.591l-0.14,2.303c-0.011,0.172,0.032,0.309,0.126,0.41c0.104,0.11,0.263,0.166,0.474,0.166h0.839
					c0.644,0,1.413,0.202,1.413,1.165c0,0.899-0.979,1.456-1.886,1.456h-0.56c-0.342,0-0.632,0.289-0.632,0.632
					c0,0.348,0.284,0.632,0.632,0.632h0.42c1.619,0,3.258-0.949,3.258-2.763C21.942,126.233,20.925,125.261,19.469,125.261z"/>
				<path d="M26.967,122.973c-0.078-0.034-0.16-0.051-0.244-0.051c-0.242,0-0.458,0.146-0.551,0.372l-2.561,6.263
					c-0.124,0.303,0.023,0.662,0.335,0.803c0.071,0.028,0.145,0.042,0.219,0.042c0.24,0,0.463-0.15,0.571-0.387l2.561-6.263
					C27.423,123.449,27.273,123.098,26.967,122.973z"/>
				<path d="M32.146,125.699l1.174-1.287c0.165-0.15,0.249-0.329,0.249-0.532v-0.312c0-0.198-0.166-0.567-0.567-0.567h-3.325
					c-0.348,0-0.632,0.273-0.632,0.61c0,0.355,0.278,0.632,0.632,0.632h2.089l-1.346,1.469c-0.106,0.137-0.158,0.273-0.158,0.418
					c0,0.354,0.278,0.632,0.632,0.632c0.397,0,1.693,0.085,1.693,1.176c0,0.939-0.987,1.187-1.51,1.187
					c-0.391,0-0.812-0.086-1.213-0.246c-0.075-0.034-0.155-0.052-0.236-0.052c-0.26,0-0.5,0.179-0.586,0.434
					c-0.102,0.305,0.051,0.63,0.373,0.792l0.054,0.026c0.216,0.108,0.665,0.331,1.587,0.331c1.555,0,2.774-1.076,2.774-2.45
					C33.828,126.873,33.134,125.96,32.146,125.699z"/>
				<path d="M38.181,122.935H37.36c-1.054,0-2.029,0.454-2.029,3.753c0,1.597,0.227,2.652,0.695,3.224
					c0.407,0.498,0.909,0.54,1.347,0.54h0.796c1.06,0,2.042-0.456,2.042-3.764C40.21,123.39,39.235,122.935,38.181,122.935z
					 M38.276,129.167h-1.011c-0.563,0-0.67-0.871-0.67-2.478c0-1.607,0.107-2.478,0.67-2.478h1.011c0.564,0,0.67,0.871,0.67,2.478
					C38.946,128.296,38.84,129.167,38.276,129.167z"/>
				<path d="M65.199,128.647c0.392-0.214,1.121-0.612,1.121-1.429c0-0.742-0.54-1.241-1.343-1.241c-0.703,0-1.083,0.305-1.15,0.364
					c-0.175,0.149-0.199,0.392-0.048,0.59c0.08,0.084,0.192,0.133,0.308,0.133c0.097,0,0.193-0.034,0.272-0.096
					c0.091-0.061,0.259-0.175,0.582-0.175c0.213,0,0.569,0.053,0.569,0.406c0,0.289-0.242,0.452-0.556,0.634
					c-0.801,0.432-1.242,1.036-1.242,1.701v0.259c0,0.233,0.136,0.469,0.396,0.469h1.798c0.232,0,0.414-0.182,0.414-0.414
					c0-0.229-0.186-0.414-0.414-0.414h-1.353C64.566,129.169,64.812,128.869,65.199,128.647z"/>
				<path d="M68.753,125.953h-0.461c-0.622,0-1.197,0.262-1.197,2.164c0,0.91,0.132,1.514,0.403,1.846
					c0.265,0.325,0.614,0.325,0.801,0.325v-0.137l0.073,0.137l0.374,0c0.626,0,1.205-0.263,1.205-2.17
					C69.949,126.215,69.374,125.953,68.753,125.953z M68.805,129.446h-0.567c-0.264,0-0.315-0.487-0.315-1.329
					c0-0.841,0.052-1.329,0.315-1.329h0.567c0.264,0,0.316,0.487,0.316,1.329C69.121,128.958,69.069,129.446,68.805,129.446z"/>
				<path d="M72.184,128.647c0.392-0.214,1.121-0.612,1.121-1.429c0-0.742-0.54-1.241-1.344-1.241c-0.701,0-1.083,0.305-1.15,0.364
					c-0.175,0.149-0.199,0.392-0.047,0.59c0.08,0.084,0.191,0.133,0.307,0.133c0.097,0,0.193-0.034,0.273-0.097
					c0.091-0.061,0.259-0.174,0.581-0.174c0.213,0,0.569,0.053,0.569,0.406c0,0.289-0.242,0.452-0.556,0.634
					c-0.801,0.432-1.242,1.036-1.242,1.701v0.259c0,0.233,0.136,0.469,0.396,0.469h1.798c0.232,0,0.414-0.182,0.414-0.414
					c0-0.229-0.186-0.414-0.414-0.414h-1.353C71.551,129.169,71.797,128.869,72.184,128.647z"/>
				<path d="M75.558,125.953c-0.099,0-0.277,0.055-0.452,0.208l-0.792,0.683c-0.083,0.074-0.133,0.173-0.142,0.282
					c-0.009,0.113,0.026,0.22,0.098,0.301c0.078,0.093,0.194,0.146,0.318,0.146c0.101,0,0.197-0.036,0.269-0.101l0.352-0.308v2.708
					c0,0.225,0.189,0.414,0.414,0.414c0.228,0,0.42-0.189,0.42-0.414v-3.547C76.045,126.106,75.845,125.953,75.558,125.953z"/>
				<path d="M79.315,126.085c-0.052-0.023-0.106-0.034-0.161-0.034c-0.16,0-0.303,0.097-0.365,0.246l-1.436,3.511
					c-0.081,0.199,0.015,0.436,0.222,0.529c0.047,0.018,0.096,0.028,0.145,0.028c0.158,0,0.305-0.098,0.376-0.254l1.436-3.511
					c0.04-0.098,0.039-0.206-0.004-0.304C79.486,126.199,79.41,126.124,79.315,126.085z"/>
				<path d="M83.507,127.54c0.679-0.371,1.944-1.061,1.944-2.455c0-1.26-0.92-2.106-2.289-2.106c-1.215,0-1.866,0.522-1.983,0.625
					c-0.267,0.227-0.303,0.6-0.075,0.897c0.122,0.129,0.293,0.203,0.471,0.203c0.149,0,0.296-0.052,0.425-0.154
					c0.159-0.107,0.489-0.329,1.098-0.329c0.419,0,1.122,0.108,1.122,0.832c0,0.572-0.456,0.882-1.047,1.225
					c-1.393,0.752-2.16,1.796-2.16,2.94v0.462c0,0.362,0.206,0.729,0.6,0.729h3.207c0.354,0,0.632-0.277,0.632-0.632
					c0-0.349-0.283-0.632-0.632-0.632h-2.522v-0.067C82.297,128.557,82.761,127.967,83.507,127.54z"/>
				<path d="M90.701,122.973c-0.079-0.034-0.16-0.051-0.244-0.051c-0.242,0-0.459,0.146-0.551,0.372l-2.561,6.263
					c-0.124,0.303,0.023,0.662,0.335,0.803c0.071,0.028,0.145,0.042,0.219,0.042c0.24,0,0.463-0.15,0.571-0.387l2.561-6.263
					C91.155,123.448,91.006,123.098,90.701,122.973z"/>
				<path d="M95.312,127.54c0.679-0.371,1.944-1.061,1.944-2.455c0-1.26-0.92-2.106-2.289-2.106c-1.215,0-1.866,0.522-1.983,0.625
					c-0.267,0.227-0.303,0.6-0.075,0.897c0.122,0.129,0.293,0.203,0.47,0.203c0.149,0,0.296-0.052,0.425-0.154
					c0.159-0.107,0.489-0.329,1.098-0.329c0.419,0,1.122,0.108,1.122,0.832c0,0.572-0.456,0.882-1.048,1.225
					c-1.393,0.752-2.16,1.796-2.16,2.94v0.462c0,0.362,0.206,0.729,0.6,0.729h3.207c0.354,0,0.632-0.277,0.632-0.632
					c0-0.349-0.283-0.632-0.632-0.632h-2.522v-0.067C94.102,128.557,94.567,127.967,95.312,127.54z"/>
				<path d="M102.448,126.321c0.57-0.437,0.837-0.951,0.837-1.602c0-1.171-1.076-1.783-2.138-1.783
					c-1.063,0-2.138,0.612-2.138,1.783c0,0.652,0.267,1.165,0.837,1.602c-0.777,0.572-1.171,1.259-1.171,2.046
					c0,1.477,1.242,2.138,2.472,2.138c1.23,0,2.472-0.661,2.472-2.138C103.619,127.581,103.225,126.893,102.448,126.321z
					 M101.147,124.167c0.436,0,0.907,0.215,0.907,0.563c0,0.337-0.28,0.62-0.907,0.915c-0.627-0.294-0.907-0.577-0.907-0.915
					C100.24,124.382,100.711,124.167,101.147,124.167z M101.147,129.231c-0.752,0-1.219-0.352-1.219-0.918
					c0-0.461,0.499-0.98,1.219-1.273c0.72,0.294,1.219,0.812,1.219,1.273C102.366,128.88,101.899,129.231,101.147,129.231z"/>
				<path d="M106.782,127.742c-0.413-0.162-0.692-0.373-0.692-0.524c0-0.214,0.219-0.31,0.436-0.31c0.161,0,0.355,0.107,0.376,0.116
					c0,0.225,0.19,0.414,0.414,0.414c0.224,0,0.414-0.19,0.414-0.414c0-0.389-0.458-0.933-1.204-0.933
					c-0.806,0-1.24,0.58-1.24,1.126c0,0.561,0.528,1.014,1.019,1.196c0.383,0.139,0.64,0.404,0.64,0.565
					c0,0.201-0.211,0.352-0.491,0.352c-0.228,0-0.406-0.099-0.406-0.225c0-0.225-0.189-0.414-0.414-0.414
					c-0.229,0-0.414,0.186-0.414,0.414c0,0.52,0.422,1.047,1.229,1.047c0.745,0,1.307-0.5,1.307-1.162
					C107.755,128.126,106.879,127.778,106.782,127.742z"/>
				<path d="M110.594,127.099c-0.205,0-0.372,0.167-0.372,0.372v1.297c0,0.179-0.239,0.6-0.702,0.6
					c-0.277,0-0.418-0.181-0.418-0.539v-1.357c0-0.205-0.167-0.372-0.372-0.372c-0.209,0-0.372,0.163-0.372,0.372v1.255
					c0,0.905,0.415,1.403,1.168,1.403c0.26,0,0.518-0.074,0.743-0.212c0.064,0.115,0.187,0.194,0.325,0.194
					c0.202,0,0.372-0.17,0.372-0.372v-2.268C110.966,127.266,110.799,127.099,110.594,127.099z"/>
				<path d="M113.112,127.111c-0.283,0-0.538,0.083-0.752,0.243c-0.056-0.137-0.191-0.237-0.346-0.237
					c-0.202,0-0.372,0.17-0.372,0.372v2.256c0,0.209,0.164,0.372,0.372,0.372c0.209,0,0.372-0.164,0.372-0.372v-1.11
					c0-0.415,0.337-0.78,0.72-0.78c0.277,0,0.418,0.157,0.418,0.466v1.424c0,0.209,0.163,0.372,0.372,0.372
					c0.209,0,0.372-0.164,0.372-0.372v-1.454C114.268,127.723,113.906,127.111,113.112,127.111z"/>
				<path d="M116.286,128.842h-0.688c-0.225,0-0.414,0.19-0.414,0.414v0.483c0,0.222,0.189,0.408,0.414,0.408h0.688
					c0.224,0,0.414-0.187,0.414-0.408v-0.483C116.7,129.032,116.51,128.842,116.286,128.842z"/>
				<path d="M60.441,126.924c-0.046-0.011-0.094-0.017-0.142-0.017c-0.116,0-0.236,0.034-0.358,0.101l-0.022,0.012l-0.016,0.019
					c-0.225,0.264-0.481,0.392-0.782,0.392c-0.136,0-0.282-0.026-0.409-0.067c-0.288-0.176-0.604-0.33-0.94-0.458
					c-0.284-0.111-0.578-0.168-0.874-0.168c-0.188,0-0.381,0.023-0.576,0.068c-0.512,0.132-0.955,0.408-1.333,0.841
					c-0.136,0.232-0.135,0.469-0.002,0.677c0.118,0.216,0.314,0.335,0.581,0.354l0.054,0.002c0.245,0,0.464-0.121,0.647-0.354
					c0.141-0.159,0.314-0.237,0.529-0.237c0.092,0,0.193,0.015,0.269,0.031c0.146,0.081,0.506,0.257,1.069,0.523
					c0.304,0.142,0.604,0.214,0.892,0.214c0.187,0,0.373-0.03,0.545-0.088c0.475-0.131,0.883-0.356,1.206-0.663
					c0.123-0.102,0.195-0.26,0.215-0.482c0-0.174-0.05-0.322-0.151-0.443C60.73,127.049,60.595,126.963,60.441,126.924z"/>
			</g>
			<g>
				<g>
					<path class="st1" d="M57.133,128c-0.409-0.11-0.73-0.031-0.966,0.236c-0.173,0.22-0.369,0.322-0.589,0.306
						c-0.22-0.015-0.377-0.11-0.471-0.282c-0.11-0.173-0.11-0.354,0-0.542c0.346-0.392,0.762-0.652,1.249-0.778
						c0.471-0.11,0.927-0.078,1.367,0.095c0.33,0.126,0.636,0.275,0.919,0.448c0.55,0.188,1.005,0.071,1.367-0.354
						c0.141-0.079,0.274-0.102,0.4-0.071c0.125,0.032,0.236,0.103,0.33,0.212c0.078,0.094,0.118,0.212,0.118,0.354
						c-0.016,0.173-0.071,0.298-0.165,0.377c-0.314,0.299-0.699,0.511-1.155,0.636c-0.424,0.141-0.872,0.102-1.343-0.118
						C57.628,128.251,57.275,128.079,57.133,128z"/>
				</g>
			</g>
			<g>
				<path class="st0" d="M43.954,126.3h-2.064c-0.157,0-0.278,0.121-0.278,0.272c0,0.157,0.121,0.277,0.278,0.277h0.754v2.885
					c0,0.151,0.126,0.278,0.277,0.278c0.151,0,0.277-0.127,0.277-0.278v-2.885h0.754c0.157,0,0.277-0.121,0.277-0.277
					C44.232,126.421,44.111,126.3,43.954,126.3z"/>
				<path class="st0" d="M46.184,127.223c-0.368,0-0.561,0.157-0.688,0.302v-1.262c0-0.126-0.109-0.235-0.236-0.235
					c-0.126,0-0.235,0.109-0.235,0.235v3.482c0,0.139,0.109,0.236,0.235,0.236c0.127,0,0.236-0.097,0.236-0.236v-1.502
					c0.151-0.308,0.477-0.555,0.682-0.555c0.302,0,0.429,0.272,0.429,0.604v1.454c0,0.139,0.109,0.236,0.235,0.236
					c0.127,0,0.236-0.097,0.236-0.236v-1.394C47.077,127.839,46.92,127.223,46.184,127.223z"/>
				<path class="st0" d="M50.147,127.235c-0.127,0-0.236,0.103-0.236,0.235v1.297c0,0.247-0.289,0.736-0.839,0.736
					c-0.477,0-0.555-0.422-0.555-0.676v-1.357c0-0.133-0.109-0.235-0.236-0.235c-0.133,0-0.235,0.103-0.235,0.235v1.255
					c0,0.664,0.223,1.267,1.032,1.267c0.32,0,0.609-0.121,0.832-0.308v0.054c0,0.127,0.109,0.236,0.236,0.236
					c0.127,0,0.236-0.109,0.236-0.236v-2.269C50.382,127.338,50.273,127.235,50.147,127.235z"/>
				<path class="st0" d="M52.546,128.98h-0.688c-0.145,0-0.277,0.121-0.277,0.277v0.483c0,0.151,0.133,0.272,0.277,0.272h0.688
					c0.145,0,0.277-0.121,0.277-0.272v-0.483C52.823,129.1,52.691,128.98,52.546,128.98z"/>
				<path class="st0" d="M1.47,128.527c0.464-0.253,1.05-0.615,1.05-1.309c0-0.694-0.513-1.104-1.207-1.104
					c-0.603,0-0.959,0.241-1.062,0.332c-0.121,0.103-0.133,0.266-0.036,0.392c0.103,0.108,0.272,0.121,0.392,0.024
					c0.091-0.06,0.289-0.205,0.67-0.205c0.386,0,0.706,0.157,0.706,0.543c0,0.38-0.326,0.579-0.627,0.754
					c-0.302,0.163-1.171,0.676-1.171,1.581v0.259c0,0.151,0.078,0.332,0.259,0.332h1.798c0.157,0,0.277-0.121,0.277-0.277
					c0-0.151-0.121-0.277-0.277-0.277H0.751v-0.114C0.751,129.136,1.017,128.786,1.47,128.527z"/>
				<path class="st0" d="M5.006,126.089H4.704c-0.428,0-1.14-0.066-1.14,2.028c0,2.094,0.712,2.034,1.14,2.034h0.302
					c0.429,0,1.14,0.061,1.14-2.034C6.146,126.022,5.435,126.089,5.006,126.089z M5.139,129.583H4.572
					c-0.398,0-0.452-0.549-0.452-1.466c0-0.917,0.054-1.467,0.452-1.467h0.567c0.398,0,0.452,0.549,0.452,1.467
					C5.591,129.034,5.537,129.583,5.139,129.583z"/>
				<path class="st0" d="M8.432,126.089c-0.067,0-0.211,0.042-0.362,0.175l-0.791,0.682c-0.114,0.103-0.133,0.278-0.03,0.392
					c0.097,0.115,0.278,0.133,0.392,0.03l0.579-0.507v3.011c0,0.151,0.126,0.278,0.277,0.278c0.151,0,0.284-0.127,0.284-0.278
					v-3.548C8.782,126.155,8.594,126.089,8.432,126.089z"/>
				<path class="st0" d="M11.532,126.107c-0.591,0-1.309,0.32-1.309,1.364c0,0.73,0.543,1.249,1.279,1.249
					c0.103,0,0.199-0.012,0.302-0.036c-0.344,0.519-0.76,0.935-0.875,1.026c-0.054,0.042-0.066,0.115-0.066,0.181
					c0,0.157,0.121,0.277,0.277,0.277c0.072,0,0.145-0.03,0.193-0.079c0.163-0.163,1.478-1.442,1.478-2.564
					C12.811,126.312,11.954,126.107,11.532,126.107z M11.484,128.189c-0.332,0-0.736-0.187-0.736-0.779
					c0-0.597,0.537-0.754,0.76-0.754c0.302,0,0.766,0.145,0.766,0.797C12.274,128.032,11.804,128.189,11.484,128.189z"/>
				<path class="st0" d="M15.384,126.209c-0.139-0.06-0.289,0.006-0.344,0.139l-1.436,3.512c-0.054,0.133,0.012,0.29,0.145,0.35
					c0.139,0.054,0.283-0.018,0.344-0.151l1.436-3.512C15.583,126.414,15.517,126.264,15.384,126.209z"/>
				<path class="st0" d="M19.47,125.396h-0.495l0.076-1.238h2.217c0.258,0,0.495-0.215,0.495-0.495c0-0.269-0.237-0.495-0.495-0.495
					h-2.745c-0.28,0-0.366,0.269-0.388,0.463l-0.14,2.304c-0.021,0.345,0.216,0.431,0.463,0.431h0.84c0.98,0,1.55,0.441,1.55,1.302
					c0,0.926-0.98,1.593-2.024,1.593h-0.56c-0.28,0-0.495,0.237-0.495,0.495c0,0.269,0.215,0.495,0.495,0.495h0.42
					c1.453,0,3.122-0.807,3.122-2.626C21.806,126.247,20.794,125.396,19.47,125.396z"/>
				<path class="st0" d="M26.906,123.098c-0.247-0.108-0.517,0.011-0.614,0.247l-2.562,6.265c-0.097,0.237,0.021,0.517,0.258,0.624
					c0.248,0.097,0.506-0.032,0.614-0.269l2.562-6.265C27.261,123.464,27.143,123.194,26.906,123.098z"/>
				<path class="st0" d="M31.868,125.784l1.346-1.475c0.118-0.108,0.205-0.247,0.205-0.43v-0.312c0-0.118-0.108-0.43-0.431-0.43
					h-3.326c-0.28,0-0.495,0.215-0.495,0.474c0,0.28,0.215,0.495,0.495,0.495h2.4l-1.55,1.69c-0.076,0.097-0.129,0.204-0.129,0.334
					c0,0.28,0.215,0.495,0.495,0.495c0.796,0,1.83,0.28,1.83,1.313c0,1.034-1.076,1.324-1.647,1.324
					c-0.538,0-1.001-0.151-1.27-0.258c-0.258-0.118-0.549,0.043-0.635,0.301c-0.086,0.258,0.065,0.506,0.301,0.624
					c0.183,0.086,0.603,0.344,1.582,0.344c1.421,0,2.637-0.947,2.637-2.314C33.676,126.914,32.955,125.946,31.868,125.784z"/>
				<path class="st0" d="M38.018,123.072H37.48c-0.764,0-2.034-0.118-2.034,3.616c0,3.735,1.27,3.628,2.034,3.628h0.538
					c0.764,0,2.034,0.107,2.034-3.628C40.052,122.953,38.782,123.072,38.018,123.072z M38.255,129.304h-1.012
					c-0.71,0-0.807-0.98-0.807-2.616c0-1.636,0.097-2.615,0.807-2.615h1.012c0.71,0,0.807,0.98,0.807,2.615
					C39.062,128.324,38.965,129.304,38.255,129.304z"/>
				<path class="st0" d="M65.135,128.527c0.464-0.253,1.05-0.615,1.05-1.309c0-0.694-0.513-1.104-1.207-1.104
					c-0.603,0-0.959,0.241-1.062,0.332c-0.121,0.103-0.133,0.266-0.036,0.392c0.103,0.108,0.272,0.121,0.392,0.024
					c0.091-0.06,0.289-0.205,0.67-0.205c0.386,0,0.706,0.157,0.706,0.543c0,0.38-0.326,0.579-0.627,0.754
					c-0.302,0.163-1.171,0.676-1.171,1.581v0.259c0,0.151,0.078,0.332,0.259,0.332h1.798c0.157,0,0.277-0.121,0.277-0.278
					c0-0.151-0.121-0.277-0.277-0.277h-1.491v-0.114C64.416,129.136,64.682,128.786,65.135,128.527z"/>
				<path class="st0" d="M68.671,126.089h-0.302c-0.428,0-1.141-0.066-1.141,2.028s0.712,2.034,1.141,2.034h0.302
					c0.429,0,1.141,0.061,1.141-2.034S69.1,126.089,68.671,126.089z M68.804,129.583h-0.567c-0.398,0-0.452-0.549-0.452-1.466
					c0-0.917,0.054-1.467,0.452-1.467h0.567c0.398,0,0.452,0.549,0.452,1.467C69.256,129.034,69.202,129.583,68.804,129.583z"/>
				<path class="st0" d="M72.115,128.527c0.465-0.253,1.05-0.615,1.05-1.309c0-0.694-0.513-1.104-1.207-1.104
					c-0.604,0-0.959,0.241-1.062,0.332c-0.121,0.103-0.133,0.266-0.036,0.392c0.102,0.108,0.271,0.121,0.392,0.024
					c0.091-0.06,0.29-0.205,0.67-0.205c0.386,0,0.706,0.157,0.706,0.543c0,0.38-0.326,0.579-0.627,0.754
					c-0.302,0.163-1.171,0.676-1.171,1.581v0.259c0,0.151,0.079,0.332,0.259,0.332h1.798c0.157,0,0.277-0.121,0.277-0.278
					c0-0.151-0.121-0.277-0.277-0.277h-1.491v-0.114C71.397,129.136,71.663,128.786,72.115,128.527z"/>
				<path class="st0" d="M75.553,126.089c-0.067,0-0.211,0.042-0.362,0.175l-0.791,0.682c-0.114,0.103-0.133,0.278-0.03,0.392
					c0.097,0.115,0.277,0.133,0.392,0.03l0.579-0.507v3.011c0,0.151,0.126,0.277,0.277,0.277c0.151,0,0.284-0.127,0.284-0.277
					v-3.548C75.903,126.156,75.715,126.089,75.553,126.089z"/>
				<path class="st0" d="M79.252,126.209c-0.139-0.06-0.289,0.006-0.344,0.139l-1.436,3.512c-0.054,0.133,0.012,0.29,0.145,0.35
					c0.139,0.054,0.283-0.018,0.344-0.151l1.436-3.512C79.451,126.414,79.385,126.264,79.252,126.209z"/>
				<path class="st0" d="M83.442,127.42c0.829-0.452,1.873-1.098,1.873-2.336c0-1.238-0.915-1.97-2.153-1.97
					c-1.076,0-1.711,0.431-1.894,0.592c-0.215,0.183-0.237,0.474-0.065,0.699c0.183,0.194,0.484,0.215,0.7,0.043
					c0.162-0.108,0.517-0.366,1.195-0.366c0.689,0,1.259,0.28,1.259,0.969c0,0.678-0.581,1.033-1.119,1.345
					c-0.538,0.29-2.088,1.205-2.088,2.82v0.463c0,0.269,0.14,0.592,0.463,0.592h3.208c0.28,0,0.495-0.215,0.495-0.495
					c0-0.269-0.215-0.495-0.495-0.495h-2.659v-0.205C82.161,128.507,82.635,127.883,83.442,127.42z"/>
				<path class="st0" d="M90.639,123.098c-0.247-0.108-0.517,0.011-0.613,0.247l-2.562,6.265c-0.097,0.237,0.022,0.517,0.259,0.624
					c0.247,0.097,0.506-0.032,0.613-0.269l2.562-6.265C90.995,123.464,90.876,123.194,90.639,123.098z"/>
				<path class="st0" d="M95.232,127.42c0.829-0.452,1.873-1.098,1.873-2.336c0-1.238-0.915-1.97-2.153-1.97
					c-1.076,0-1.711,0.431-1.894,0.592c-0.215,0.183-0.237,0.474-0.065,0.699c0.183,0.194,0.484,0.215,0.7,0.043
					c0.161-0.108,0.517-0.366,1.195-0.366c0.689,0,1.259,0.28,1.259,0.969c0,0.678-0.582,1.033-1.12,1.345
					c-0.538,0.29-2.088,1.205-2.088,2.82v0.463c0,0.269,0.14,0.592,0.463,0.592h3.208c0.28,0,0.495-0.215,0.495-0.495
					c0-0.269-0.215-0.495-0.495-0.495h-2.658v-0.205C93.952,128.507,94.425,127.883,95.232,127.42z"/>
				<path class="st0" d="M102.191,126.322c0.571-0.388,0.936-0.872,0.936-1.604c0-1.066-0.969-1.647-2.002-1.647
					c-1.033,0-2.002,0.581-2.002,1.647c0,0.732,0.366,1.216,0.937,1.604c-0.657,0.441-1.27,1.087-1.27,2.045
					c0,1.41,1.206,2.002,2.336,2.002c1.13,0,2.336-0.592,2.336-2.002C103.461,127.41,102.848,126.764,102.191,126.322z
					 M101.125,124.03c0.484,0,1.044,0.247,1.044,0.699c0,0.463-0.43,0.786-1.044,1.066c-0.613-0.28-1.044-0.603-1.044-1.066
					C100.081,124.277,100.641,124.03,101.125,124.03z M101.125,129.368c-0.84,0-1.356-0.42-1.356-1.055
					c0-0.592,0.635-1.141,1.356-1.421c0.721,0.28,1.357,0.829,1.357,1.421C102.482,128.949,101.965,129.368,101.125,129.368z"/>
				<path class="st0" d="M106.733,127.869c-0.277-0.109-0.779-0.356-0.779-0.652c0-0.289,0.266-0.447,0.573-0.447
					c0.217,0,0.513,0.157,0.513,0.254c0,0.151,0.127,0.277,0.278,0.277c0.144,0,0.277-0.127,0.277-0.277
					c0-0.302-0.38-0.797-1.068-0.797c-0.7,0-1.105,0.495-1.105,0.99c0,0.501,0.507,0.911,0.93,1.068
					c0.398,0.145,0.73,0.441,0.73,0.694c0,0.283-0.272,0.489-0.627,0.489c-0.32,0-0.543-0.157-0.543-0.362
					c0-0.151-0.127-0.278-0.278-0.278c-0.157,0-0.277,0.127-0.277,0.278c0,0.465,0.386,0.912,1.092,0.912
					c0.652,0,1.171-0.422,1.171-1.026C107.62,128.322,107.01,127.972,106.733,127.869z"/>
				<path class="st0" d="M110.593,127.235c-0.127,0-0.236,0.103-0.236,0.236v1.297c0,0.247-0.289,0.736-0.839,0.736
					c-0.477,0-0.555-0.422-0.555-0.676v-1.357c0-0.133-0.109-0.236-0.236-0.236c-0.133,0-0.235,0.103-0.235,0.236v1.255
					c0,0.664,0.223,1.267,1.032,1.267c0.32,0,0.609-0.121,0.833-0.308v0.054c0,0.127,0.109,0.236,0.236,0.236
					c0.127,0,0.235-0.109,0.235-0.236v-2.269C110.828,127.338,110.72,127.235,110.593,127.235z"/>
				<path class="st0" d="M113.107,127.247c-0.422,0-0.694,0.199-0.863,0.399v-0.157c0-0.127-0.109-0.235-0.236-0.235
					c-0.127,0-0.235,0.109-0.235,0.235v2.257c0,0.139,0.109,0.236,0.235,0.236c0.127,0,0.236-0.097,0.236-0.236v-1.11
					c0-0.483,0.386-0.917,0.857-0.917c0.247,0,0.555,0.121,0.555,0.604v1.424c0,0.139,0.109,0.236,0.235,0.236
					c0.126,0,0.235-0.097,0.235-0.236v-1.454C114.127,127.748,113.79,127.247,113.107,127.247z"/>
				<path class="st0" d="M116.279,128.98h-0.688c-0.145,0-0.277,0.121-0.277,0.277v0.483c0,0.151,0.133,0.272,0.277,0.272h0.688
					c0.145,0,0.278-0.121,0.278-0.272v-0.483C116.557,129.1,116.424,128.98,116.279,128.98z"/>
			</g>
		</g>
		<g>
			<path d="M52.953,86.289c3.706-0.086,7.389,0.396,11.088,0.484c0.364,0.009,0.604-0.074,0.816-0.371
				c3.315-4.639,7.283-8.697,11.319-12.693c0.638-0.631,1.409-0.69,2.033-0.169c0.57,0.476,0.498,1.066-0.154,1.4
				c-0.517,0.265-0.875,0.727-1.282,1.12c-3.358,3.249-6.69,6.525-9.43,10.339c-0.094,0.13-0.309,0.239-0.222,0.42
				c0.088,0.18,0.309,0.087,0.469,0.09c4.024,0.072,8.041,0.31,12.061,0.478c0.501,0.021,0.576-0.126,0.491-0.569
				c-0.317-1.641-0.704-3.264-1.196-4.861c-0.218-0.706-0.259-0.725-0.954-0.511c-0.671,0.207-1.342,0.41-2.014,0.612
				c-0.712,0.215-1.548-0.106-1.918-0.752c-0.216-0.377,0.042-0.505,0.346-0.598c1.126-0.343,2.254-0.686,3.417-0.87
				c0.481-0.076,0.502-0.248,0.329-0.63c-0.228-0.5-0.404-1.023-0.624-1.527c-0.177-0.406-0.02-0.596,0.367-0.71
				c0.611-0.18,1.159,0.009,1.535,0.562c0.312,0.458,0.524,0.969,0.715,1.483c0.101,0.273,0.223,0.41,0.523,0.401
				c1.914-0.058,3.841-0.02,5.663-0.759c0.495-0.201,0.964-0.128,1.427,0.098c0.528,0.258,0.734,0.709,0.45,1.221
				c-0.745,1.345-1.396,2.734-2.06,4.12c-0.261,0.545-0.735,0.628-1.232,0.276c-0.093-0.066-0.179-0.141-0.266-0.215
				c-0.733-0.62-0.732-0.62-0.22-1.406c0.312-0.479,0.528-1.005,0.761-1.524c0.129-0.286,0.032-0.37-0.257-0.374
				c-1.274-0.016-2.542,0.073-3.809,0.196c-0.34,0.033-0.42,0.194-0.324,0.492c0.59,1.824,1.076,3.676,1.548,5.533
				c0.076,0.298,0.264,0.433,0.581,0.426c1.596-0.038,3.188,0.092,4.781,0.169c0.529,0.026,0.903-0.157,1.262-0.504
				c1.43-1.38,2.114-3.113,2.438-5.03c0.355-2.097,0.661-4.199,0.829-6.321c0.036-0.459-0.075-0.599-0.535-0.61
				c-2.734-0.065-5.457-0.275-8.176-0.583c-0.734-0.083-0.991-0.627-1.377-1.068c-0.157-0.18,0.025-0.305,0.168-0.407
				c0.317-0.227,0.683-0.246,1.04-0.191c2.802,0.428,5.633,0.475,8.454,0.659c0.497,0.032,0.691-0.099,0.734-0.64
				c0.098-1.216,0.088-2.429,0.019-3.642c-0.029-0.507,0.226-0.736,0.639-0.758c1.063-0.056,1.709,0.15,1.555,1.365
				c-0.143,1.124-0.062,2.275-0.101,3.413c-0.015,0.434,0.248,0.441,0.552,0.44c1.425-0.001,2.85-0.003,4.274,0.001
				c0.246,0.001,0.496,0.004,0.738,0.047c0.58,0.101,0.968,0.565,0.908,1.052c-0.055,0.449-0.473,0.737-1.069,0.719
				c-0.986-0.03-1.972-0.069-2.958-0.107c-0.664-0.026-1.33-0.033-1.991-0.095c-0.528-0.05-0.707,0.171-0.732,0.669
				c-0.124,2.412-0.497,4.795-0.935,7.166c-0.283,1.533-0.953,2.905-1.907,4.138c-0.101,0.13-0.307,0.249-0.231,0.424
				c0.076,0.176,0.302,0.114,0.467,0.123c2.255,0.12,4.511,0.229,6.766,0.364c0.37,0.022,0.444-0.098,0.44-0.438
				c-0.018-1.576,0.008-3.152-0.08-4.727c-0.021-0.369-0.115-0.53-0.511-0.427c-0.404,0.105-0.819,0.164-1.225,0.261
				c-0.75,0.18-1.507-0.096-1.964-0.719c-0.163-0.222-0.104-0.394,0.099-0.529c0.336-0.224,0.701-0.398,1.111-0.4
				c2.019-0.007,3.105-1.388,4.118-2.833c0.431-0.615,1.496-0.884,2.084-0.413c0.337,0.27,0.423,0.774,0.126,1.173
				c-0.407,0.547-0.863,1.057-1.307,1.575c-0.109,0.127-0.267,0.207-0.283,0.404c-0.181,2.21,0.066,4.419,0.001,6.627
				c-0.017,0.588,0.235,0.719,0.723,0.727c1.139,0.018,2.278,0.048,3.416,0.073c3.058,0.067,6.097,0.401,9.142,0.66
				c0.215,0.018,0.411,0.08,0.582,0.207c0.392,0.293,0.545,0.696,0.4,1.155c-0.143,0.452-0.538,0.574-0.966,0.522
				c-0.772-0.095-1.541-0.215-2.309-0.337c-1.937-0.307-3.897-0.292-5.847-0.426c-0.5-0.034-0.73,0.166-0.696,0.701
				c0.08,1.231,0.136,2.463,0.176,3.696c0.011,0.332,0.122,0.487,0.451,0.516c0.473,0.041,0.944,0.103,1.415,0.156
				c0.29,0.033,0.406-0.051,0.362-0.382c-0.093-0.695-0.048-1.404-0.213-2.093c-0.112-0.467,0.081-0.709,0.537-0.819
				c1.271-0.306,1.967,0.591,1.838,1.671c-0.055,0.458-0.081,0.904-0.015,1.358c0.027,0.184,0.076,0.353,0.3,0.338
				c0.415-0.027,0.829,0.13,1.245-0.004c0.497-0.16,0.995-0.037,1.456,0.109c0.477,0.151,0.564,0.642,0.465,1.047
				c-0.294,1.204-0.086,2.419-0.154,3.625c-0.016,0.284-0.004,0.571-0.032,0.854c-0.078,0.771-0.624,1.083-1.31,0.761
				c-0.847-0.398-1.03-0.738-0.939-1.678c0.084-0.872,0.024-1.744,0.003-2.617c-0.01-0.417-0.281-0.376-0.532-0.42
				c-0.322-0.056-0.383,0.131-0.397,0.398c-0.052,0.947-0.114,1.893-0.176,2.839c-0.064,0.977-0.792,1.34-1.624,0.813
				c-0.726-0.459-0.783-0.677-0.647-1.513c0.122-0.746,0.149-1.508,0.222-2.262c0.028-0.285-0.099-0.423-0.38-0.447
				c-0.548-0.048-1.098-0.09-1.644-0.161c-0.306-0.04-0.382,0.072-0.41,0.363c-0.231,2.456-0.442,4.914-0.526,7.381
				c-0.033,0.948-0.047,1.899-0.13,2.844c-0.035,0.395,0.121,0.529,0.442,0.559c0.415,0.039,0.833,0.063,1.249,0.062
				c1.881-0.006,3.76,0.031,5.638,0.126c0.327,0.017,0.625-0.037,0.923-0.214c0.447-0.266,1.779,0.161,2.043,0.614
				c0.346,0.596-0.1,1.32-0.832,1.296c-3.091-0.104-6.182-0.22-9.272-0.352c-0.435-0.019-0.864,0.103-1.303-0.012
				c-0.395-0.104-0.751-0.26-1.057-0.529c-0.147-0.129-0.254-0.275-0.228-0.492c0.31-2.6,0.42-5.215,0.568-7.827
				c0.067-1.178,0.284-2.336,0.356-3.512c0.027-0.438-0.136-0.596-0.523-0.61c-0.61-0.022-1.009-0.387-1.37-0.82
				c-0.265-0.317-0.211-0.547,0.184-0.686c0.478-0.17,0.964-0.203,1.457-0.076c0.31,0.08,0.457-0.004,0.458-0.355
				c0.005-1.293-0.027-2.582-0.163-3.869c-0.03-0.287-0.135-0.405-0.45-0.43c-2.119-0.164-4.237-0.348-6.354-0.539
				c-0.325-0.029-0.45,0.087-0.459,0.398c-0.038,1.312,0.083,2.618,0.119,3.928c0.008,0.296,0.208,0.376,0.449,0.418
				c0.618,0.107,1.232,0.225,1.867,0.138c0.241-0.033,0.496-0.015,0.737,0.026c0.478,0.082,0.783,0.576,0.681,1.058
				c-0.267,1.266-0.189,2.531,0.094,3.778c0.233,1.028-0.094,1.419-1.126,1.237c-0.729-0.129-1.458-0.255-2.185-0.391
				c-0.387-0.072-0.571,0.029-0.514,0.465c0.142,1.091,0.431,2.162,0.437,3.271c0.002,0.296,0.232,0.241,0.413,0.243
				c0.684,0.007,1.369-0.004,2.052,0.018c0.641,0.021,0.967,0.357,0.853,0.981c-0.213,1.174-0.224,2.332-0.011,3.507
				c0.092,0.509-0.47,0.909-1.076,0.747c-0.643-0.172-1.297-0.224-1.942-0.335c-1.393-0.24-2.763-0.059-4.142-0.015
				c-0.607,0.019-1.211,0.063-1.82,0.037c-0.8-0.035-1.6-0.017-2.363,0.267c-0.768,0.286-1.304-0.173-1.866-0.557
				c-0.084-0.058-0.118-0.15-0.101-0.25c0.172-1.033-0.126-2.034-0.207-3.05c-0.072-0.891,0.319-1.343,1.239-1.32
				c0.74,0.019,1.482,0.025,2.219,0.086c0.323,0.027,0.47-0.029,0.452-0.367c-0.072-1.384-0.24-2.763-0.172-4.153
				c0.011-0.23-0.143-0.324-0.363-0.351c-0.603-0.075-1.2-0.174-1.812-0.036c-0.497,0.112-1.583-0.384-1.841-0.799
				c-0.076-0.122-0.085-0.247-0.067-0.383c0.164-1.283,0.058-2.575,0.09-3.862c0.012-0.498,0.19-0.623,0.603-0.758
				c0.828-0.271,1.573,0.1,2.341,0.23c1.248,0.211,1.281,0.246,1.241-1.035c-0.029-0.918,0.209-1.807,0.176-2.721
				c-0.019-0.555-0.216-0.754-0.81-0.814c-3.255-0.328-6.522-0.299-9.783-0.433c-0.81-0.033-0.801-0.022-0.724,0.802
				c0.115,1.228,0.224,2.457,0.317,3.687c0.022,0.288,0.124,0.412,0.412,0.406c0.74-0.014,1.482,0.009,2.221-0.031
				c0.969-0.051,1.413,0.42,1.274,1.377c-0.15,1.034-0.261,2.063-0.065,3.115c0.181,0.969-0.226,1.283-1.146,0.983
				c-0.797-0.26-1.607-0.232-2.425-0.125c-0.328,0.043-0.419,0.198-0.432,0.526c-0.052,1.237,0.306,2.453,0.17,3.693
				c-0.041,0.372,0.233,0.375,0.492,0.372c0.798-0.01,1.596-0.03,2.393-0.029c0.823,0,1.143,0.366,1.043,1.178
				c-0.136,1.117-0.088,2.238-0.045,3.355c0.035,0.895-0.215,1.148-1.099,0.994c-1.743-0.304-3.49-0.509-5.265-0.308
				c-0.322,0.037-0.286,0.152-0.203,0.357c0.66,1.616,1.65,2.897,3.421,3.397c0.37,0.104,0.708,0.28,0.956,0.587
				c0.363,0.448,0.191,0.943-0.37,1.088c-0.329,0.085-0.641,0.017-0.947-0.095c-2.312-0.853-4.089-2.293-4.995-4.646
				c-0.228-0.593-0.538-0.765-1.187-0.718c-1.646,0.119-3.299,0.135-4.95,0.174c-0.302,0.007-0.428,0.076-0.555,0.39
				c-0.863,2.135-2.164,3.904-4.301,4.941c-0.727,0.353-1.613,0.182-2.114-0.43c-0.133-0.163-0.137-0.294,0.014-0.445
				c0.191-0.19,0.408-0.331,0.656-0.439c1.559-0.679,2.592-1.871,3.3-3.385c0.223-0.476-0.097-0.463-0.392-0.463
				c-1.558,0-3.116-0.003-4.674,0.018c-0.71,0.01-1.405,0.016-2.028-0.405c-0.271-0.183-0.442-0.391-0.421-0.744
				c0.062-1.04,0.121-2.079-0.07-3.117c-0.072-0.389,0.536-0.833,1.124-0.816c0.91,0.026,1.819,0.093,2.728,0.137
				c0.398,0.019,0.798,0.016,1.196,0.035c0.3,0.014,0.463-0.076,0.45-0.415c-0.071-1.802,0.017-3.607-0.115-5.409
				c-0.028-0.377-0.152-0.546-0.541-0.555c-0.435-0.01-0.847-0.048-1.28,0.134c-0.763,0.322-1.875-0.483-1.954-1.301
				c-0.1-1.037-0.289-2.066-0.406-3.102c-0.105-0.932,0.224-1.268,1.162-1.082c0.892,0.177,1.78,0.066,2.667,0.128
				c0.498,0.035,0.669-0.142,0.652-0.647c-0.04-1.158-0.041-2.318-0.027-3.477c0.004-0.354-0.121-0.452-0.454-0.466
				c-2.275-0.094-4.553-0.155-6.822-0.33c-1.163-0.09-2.308,0.013-3.46,0.047c-0.518,0.015-0.936-0.115-1.181-0.607
				C52.2,86.875,52.63,86.623,52.953,86.289z M62.296,105.741c-0.114,0-0.228,0-0.342,0c-1.413,0-1.413,0-1.41,1.407
				c0.002,0.725,0.016,0.748,0.776,0.751c1.557,0.006,3.115,0.041,4.67-0.006c3.11-0.093,6.219-0.236,9.329-0.349
				c0.589-0.021,1.176-0.024,1.732-0.259c0.145-0.061,0.308-0.089,0.445-0.024c0.902,0.426,1.89,0.357,2.841,0.495
				c1.299,0.189,1.373,0.1,1.349-1.258c-0.022-1.258-0.03-1.261-1.259-1.25c-0.29,0.003-0.567,0.056-0.841,0.131
				c-1.168,0.322-1.984-0.362-1.856-1.553c0.17-1.575,0.114-3.145-0.137-4.708c-0.126-0.785,0.194-1.206,1.015-1.142
				c0.873,0.067,1.738-0.198,2.609-0.011c0.242,0.052,0.464-0.013,0.476-0.332c0.022-0.607,0.041-1.215-0.029-1.821
				c-0.032-0.28-0.188-0.381-0.464-0.373c-0.607,0.018-1.212-0.002-1.818,0.086c-0.817,0.119-1.759-0.704-1.614-1.412
				c0.333-1.625,0.027-3.209-0.248-4.799c-0.044-0.253-0.154-0.419-0.433-0.439c-0.51-0.036-1.02-0.09-1.531-0.116
				c-0.412-0.021-0.614,0.145-0.599,0.608c0.042,1.307,0.226,2.604,0.2,3.918c-0.017,0.826-0.261,1.08-1.048,0.893
				c-0.293-0.07-0.6-0.111-0.9-0.11c-1.101,0.004-2.199,0.08-3.292,0.214c-0.496,0.061-1.504-0.428-1.76-0.87
				c-0.071-0.123-0.081-0.252-0.057-0.385c0.236-1.351-0.038-2.686-0.128-4.026c-0.011-0.169-0.017-0.415-0.176-0.455
				c-0.494-0.125-1.024-0.232-1.509-0.08c-0.374,0.116-0.258,0.562-0.253,0.861c0.027,1.46,0.084,2.92,0.137,4.38
				c0.014,0.396-0.022,0.802-0.383,1.011c-0.377,0.219-0.727-0.002-1.039-0.245c-0.273-0.212-0.56-0.386-0.928-0.381
				c-0.589,0.008-1.178,0.013-1.767-0.002c-0.372-0.01-0.535,0.138-0.475,0.509c0.085,0.524,0.174,1.047,0.259,1.571
				c0.046,0.286,0.204,0.451,0.5,0.435c0.662-0.037,1.313,0.137,1.986,0.028c0.525-0.085,1.078,0.017,1.509,0.368
				c0.401,0.326,0.074,0.743,0.052,1.12c-0.001,0.019-0.001,0.038-0.002,0.057c-0.052,2.335,0.086,4.666,0.173,6.997
				c0.026,0.706-0.258,1.019-0.939,0.853C64.186,105.802,63.251,105.684,62.296,105.741z M94.25,107.725
				c1.143,0.154,2.249,0.009,3.329-0.381c0.175-0.063,0.179-0.168,0.182-0.299c0.005-0.228-0.011-0.457,0.009-0.684
				c0.034-0.38-0.175-0.451-0.49-0.436c-0.372,0.018-0.69,0.195-1.027,0.321c-0.673,0.251-1.172-0.156-1.674-0.484
				c-0.294-0.192-0.3-0.527-0.197-0.828c0.228-0.666,0.226-1.347,0.162-2.029c-0.095-1.001-0.227-1.998-0.32-2.999
				c-0.08-0.867,0.441-1.296,1.3-1.109c0.649,0.142,1.3,0.273,1.949,0.413c0.364,0.078,0.542-0.028,0.494-0.434
				c-0.084-0.716-0.159-1.433-0.215-2.152c-0.027-0.348-0.233-0.455-0.527-0.468c-0.417-0.019-0.836-0.019-1.253-0.037
				c-0.743-0.032-1.651-0.783-1.604-1.361c0.124-1.519-0.114-3.033-0.042-4.55c0.011-0.229-0.046-0.397-0.29-0.489
				c-1.083-0.408-1.659-0.025-1.673,1.126c-0.002,0.152-0.002,0.304,0.004,0.456c0.05,1.214,0.107,2.427,0.151,3.641
				c0.034,0.934-0.277,1.175-1.166,0.956c-0.847-0.209-1.701-0.386-2.548-0.596c-0.318-0.079-0.46,0.025-0.514,0.335
				c-0.113,0.641-0.131,1.281-0.039,1.927c0.048,0.339,0.227,0.498,0.561,0.524c0.795,0.061,1.587,0.151,2.383,0.194
				c1.429,0.078,1.586,0.259,1.319,1.627c-0.011,0.056-0.014,0.113-0.019,0.17c-0.167,1.713,0.112,3.406,0.26,5.102
				c0.089,1.016-0.291,1.403-1.26,1.071c-0.745-0.255-1.518-0.325-2.293-0.4c-0.348-0.034-0.494,0.124-0.466,0.464
				c0.035,0.435,0.069,0.87,0.102,1.306c0.023,0.294,0.187,0.367,0.465,0.352C90.953,107.881,92.602,107.806,94.25,107.725z
				 M71.237,88.586c-0.361,0-0.722,0.01-1.082-0.003c-0.254-0.009-0.333,0.1-0.317,0.34c0.077,1.135,0.145,2.271,0.223,3.406
				c0.02,0.289,0.165,0.432,0.483,0.414c0.7-0.042,1.402-0.061,2.103-0.082c0.321-0.01,0.43-0.166,0.502-0.482
				c0.145-0.635,0.052-1.251-0.046-1.865C72.784,88.317,73.363,88.721,71.237,88.586z"/>
			<g>
				<g>
					<path class="st2" d="M52.953,86.289c-0.324,0.334-0.753,0.586-0.849,1.096c-0.271,0.04-0.405,0.249-0.572,0.434
						c-1.06,1.171-2.195,2.263-3.551,3.089c-1.646,1.004-3.45,1.502-5.368,1.701c-4.384,0.453-8.412-0.711-12.278-2.623
						c-1.231-0.609-2.279-1.498-3.289-2.424c-0.139-0.128-0.293-0.239-0.44-0.358c-0.376-0.594-0.847-1.103-1.369-1.57
						c-0.508-0.754-0.991-1.523-1.46-2.303c-1.521-2.525-2.317-5.298-2.877-8.159c-1.004-5.129-0.908-10.318-0.741-15.497
						c0.094-2.916,0.485-5.82,1.15-8.674c0.103-0.441,0.066-0.685-0.491-0.757c-3.862-0.494-7.727-0.915-11.627-0.942
						c-1.572-0.011-3.14-0.172-4.718-0.01c-0.786,0.081-1.303-0.527-1.826-1.021c-0.066-0.062-0.077-0.216-0.066-0.323
						c0.255-2.316-0.054-4.623-0.121-6.933c-0.027-0.948-0.095-1.895-0.138-2.842c-0.026-0.569-0.114-1.081-0.707-1.383
						c-0.317-0.161-0.346-0.446,0.003-0.658c0.482-0.292,0.932-0.653,1.574-0.404c1.184,0.458,2.437,0.284,3.664,0.347
						c3.581,0.185,7.164,0.351,10.744,0.562c2.709,0.159,5.413,0.382,8.121,0.564c0.87,0.058,1.743,0.082,2.615,0.11
						c0.417,0.013,0.821-0.029,1.233-0.153c0.929-0.281,1.664,0.403,1.493,1.356c-0.102,0.563-0.129,1.129-0.137,1.7
						c-0.054,4.084,0.05,8.162,0.27,12.241c0.127,2.349,0.184,4.703,0.353,7.05c0.275,3.823,0.541,7.65,1.681,11.343
						c0.476,1.542,1.035,3.05,2.001,4.376c1.548,2.123,4.383,3.214,6.786,2.584c0.992-0.26,1.718-0.861,2.188-1.766
						c0.719-1.387,1.162-2.878,1.637-4.358c0.48-1.498,0.891-3.013,1.201-4.556c0.337-1.678,0.444-3.386,0.627-5.083
						c0.321-2.967,0.383-5.948,0.291-8.931c-0.122-3.965-0.302-7.928-0.758-11.871c-0.098-0.843-0.3-1.682-0.739-2.435
						c-0.208-0.357-0.118-0.57,0.255-0.766c0.574-0.301,1.125-0.379,1.746-0.15c0.959,0.353,1.977,0.361,2.98,0.369
						c3.215,0.027,6.397,0.415,9.575,0.847c3.006,0.408,6.014,0.424,9.028,0.09c0.773-0.086,1.55-0.146,2.327-0.183
						c1.057-0.05,1.465,0.479,1.171,1.502c-0.137,0.478-0.201,0.963-0.262,1.454c-0.051,0.407,0.053,0.58,0.506,0.567
						c1.692-0.05,3.369-0.237,5.03-0.552c0.544-0.103,1.018,0.002,1.477,0.25c0.607,0.329,0.692,0.646,0.458,1.304
						c-0.382,1.079-0.521,2.216-0.685,3.337c-0.517,3.535-1.323,7.002-2.403,10.404c-0.125,0.395-0.026,0.531,0.334,0.564
						c0.793,0.073,1.586,0.156,2.381,0.2c0.985,0.056,1.974,0.055,2.958,0.124c0.423,0.03,0.546-0.108,0.51-0.502
						c-0.092-1.001-0.183-2.002-0.249-3.005c-0.027-0.415-0.281-0.959,0.457-1.061c0.857-0.119,1.514,0.205,1.596,0.882
						c0.114,0.941,0.178,1.89,0.208,2.837c0.018,0.541,0.27,0.713,0.75,0.658c0.365-0.042,0.718,0.005,1.074,0.074
						c0.587,0.115,0.988,0.594,0.948,1.148c-0.041,0.575-0.415,0.872-1.099,0.875c-1.523,0.006-1.483,0.009-1.567,1.481
						c-0.077,1.349-0.061,2.691,0.005,4.037c0.022,0.452-0.028,0.909-0.068,1.362c-0.052,0.587-0.324,0.766-0.88,0.606
						c-0.895-0.258-1.319-0.866-1.293-1.806c0.048-1.765,0.172-3.527,0.145-5.294c-0.006-0.386-0.114-0.538-0.493-0.564
						c-1.136-0.077-2.27-0.175-3.406-0.262c-0.757-0.058-1.526-0.049-2.267-0.189c-0.616-0.117-0.876,0.1-1.025,0.643
						c-0.407,1.486-1.084,2.868-1.643,4.296c-0.377,0.962-1.063,1.499-1.955,1.848c-2.507,0.98-4.557,0.027-6.401-1.603
						c-0.9-0.796-1.561-1.786-1.601-3.039c-0.033-1.028,0.35-1.841,1.302-2.409c1.653-0.987,3.395-1.571,5.33-1.578
						c1.099-0.004,2.195-0.191,3.297-0.061c0.315,0.037,0.436-0.165,0.522-0.416c0.693-2.009,1.267-4.051,1.707-6.13
						c0.365-1.725,0.756-3.446,0.988-5.196c0.067-0.508,0.097-1.021,0.17-1.527c0.056-0.393-0.109-0.489-0.473-0.484
						c-1.294,0.019-2.569,0.238-3.853,0.351c-0.132,0.012-0.277,0.068-0.393,0.031c-0.636-0.2-0.695,0.126-0.725,0.656
						c-0.148,2.652-0.381,5.3-0.475,7.956c-0.028,0.777-0.442,1.503-1.508,0.895c-0.537-0.306-1.144-0.246-1.725-0.284
						c-2.044-0.131-4.076-0.451-6.133-0.403c-0.747,0.018-0.753,0.008-0.746,0.738c0.026,2.793-0.082,5.582-0.372,8.358
						c-0.189,1.81-0.518,3.606-0.783,5.408c-0.014,0.093-0.013,0.188-0.019,0.282c-0.22,0.439-0.294,0.908-0.279,1.395
						c-0.445,1.189-0.634,2.45-1.022,3.656c-1.301,4.044-2.929,7.926-5.459,11.384C53.933,84.902,53.355,85.534,52.953,86.289z
						 M28.766,42.839c0-1.121-0.004-2.242,0.003-3.363c0.002-0.296-0.025-0.482-0.414-0.508c-1.722-0.118-3.441-0.294-5.163-0.412
						c-2.858-0.197-5.709-0.481-8.569-0.664c-3.221-0.207-6.443-0.358-9.669-0.418c-0.362-0.007-0.634,0.014-0.597,0.507
						c0.078,1.04,0.124,2.082,0.17,3.124c0.088,1.972,0.173,3.944,0.247,5.916c0.014,0.371,0.137,0.553,0.537,0.56
						c0.93,0.017,1.859,0.068,2.788,0.103c2.522,0.097,5.042,0.222,7.558,0.436c2.456,0.209,4.887,0.711,7.37,0.628
						c0.889-0.03,1.252,0.497,0.9,1.328c-0.395,0.932-0.609,1.913-0.871,2.882c-0.916,3.39-0.946,6.875-1.013,10.341
						c-0.061,3.147,0.088,6.293,0.514,9.427c0.38,2.798,0.934,5.531,2.084,8.124c1.272,2.869,3.09,5.294,5.647,7.155
						c1.514,1.102,3.211,1.77,4.97,2.336c2.671,0.859,5.374,1.326,8.182,0.832c1.715-0.302,3.284-0.89,4.591-2.095
						c2.961-2.73,5.383-5.878,7.22-9.454c2.403-4.677,3.608-9.723,4.443-14.876c0.362-2.233,0.512-4.487,0.612-6.741
						c0.076-1.725,0.174-3.47-0.088-5.176c-0.183-1.194-0.14-1.232,1.031-1.624c0.209-0.07,0.401-0.069,0.605,0.03
						c0.348,0.169,0.723,0.201,1.109,0.203c1.12,0.007,2.239-0.006,3.356,0.123c1.149,0.133,2.301,0.266,3.465,0.215
						c0.307-0.014,0.508-0.069,0.531-0.429c0.05-0.776,0.156-1.549,0.183-2.326c0.089-2.563,0.409-5.105,0.664-7.653
						c0.044-0.439-0.054-0.579-0.495-0.551c-1.288,0.081-2.578,0.138-3.868,0.198c-2.864,0.134-5.686-0.317-8.504-0.7
						c-2.908-0.395-5.826-0.431-8.745-0.542c-0.389-0.015-0.526,0.07-0.477,0.504c0.432,3.866,0.753,7.741,0.877,11.632
						c0.112,3.514,0.106,7.022-0.35,10.516c-0.243,1.862-0.352,3.746-0.749,5.583c-0.537,2.487-1.42,4.877-2.259,7.274
						c-0.516,1.475-1.387,2.702-2.873,3.375c-2.279,1.032-4.573,0.968-6.849,0.02c-2.557-1.065-4.029-3.12-5.022-5.604
						c-1.378-3.447-1.767-7.096-2.135-10.735c-0.292-2.886-0.422-5.79-0.585-8.688C28.924,50.05,28.798,46.446,28.766,42.839z
						 M73.178,59.157c-1.75-0.008-3.443,0.257-5.006,1.087c-1.147,0.609-1.437,1.857-0.703,2.933
						c0.479,0.702,1.105,1.249,1.869,1.627c1.24,0.615,2.894,0.29,3.448-0.766c0.765-1.458,1.399-2.98,1.945-4.538
						c0.092-0.264,0.015-0.347-0.243-0.344C74.051,59.161,73.614,59.157,73.178,59.157z"/>
				</g>
			</g>
			<path d="M25.237,85.634c0.522,0.466,0.994,0.976,1.369,1.57c-0.61,0.439-1.269,0.494-1.987,0.314
				c-0.665-0.166-1.355-0.175-2.036-0.161c-3.339,0.069-6.677,0.209-10.015,0.211c-1.797,0.001-3.592-0.257-5.391-0.339
				c-1.419-0.065-2.838-0.174-4.261-0.115c-0.478,0.02-1.509-0.802-1.561-1.256c-0.04-0.342,0.258-0.343,0.465-0.342
				c0.759,0.004,1.517,0.03,2.275,0.062C6.047,85.659,8,85.719,9.949,85.844c2.124,0.137,4.247,0.156,6.372,0.086
				c2.463-0.081,4.931-0.086,7.386-0.351C24.221,85.524,24.723,85.741,25.237,85.634z"/>
			<g>
				<path class="st2" d="M93.93,59.803c-0.535,0-0.964-0.059-1.369,0.012c-0.891,0.157-1.41-0.361-1.92-0.94
					c-0.255-0.29-0.211-0.502,0.149-0.655c0.306-0.13,0.622-0.147,0.949-0.144c2.526,0.02,5.044,0.188,7.556,0.449
					c1.206,0.125,2.311,0.586,3.39,1.094c0.681,0.32,0.919,1.001,1.041,1.682c0.413,2.299-0.27,4.263-1.909,5.903
					c-0.538,0.538-1.237,0.81-1.94,1.036c-0.583,0.188-1.621-0.419-1.823-0.997c-0.06-0.171-0.015-0.304,0.129-0.394
					c0.16-0.1,0.325-0.233,0.502-0.261c1.636-0.256,2.241-1.487,2.677-2.847c0.25-0.78,0.34-1.579,0.136-2.412
					c-0.111-0.454-0.363-0.648-0.746-0.739c-0.72-0.171-1.441-0.348-2.172-0.454c-0.787-0.115-1.59-0.123-2.379-0.234
					C95.406,59.789,94.61,59.815,93.93,59.803z"/>
			</g>
			<path d="M73.847,116.948c-1.971,0.111-3.89-0.378-5.839-0.518c-0.493-0.035-0.922-0.329-1.346-0.587
				c-0.29-0.177-0.22-0.345-0.029-0.541c0.387-0.398,0.87-0.421,1.375-0.362c0.792,0.092,1.585,0.178,2.374,0.285
				c0.372,0.05,0.601-0.015,0.543-0.458c-0.014-0.111,0.015-0.227,0.018-0.341c0.024-1.163,0.026-1.176-1.117-1.319
				c-0.517-0.064-0.926-0.296-1.308-0.629c-0.295-0.257-0.22-0.425,0.068-0.609c0.518-0.33,1.089-0.293,1.656-0.246
				c0.246,0.02,0.405,0.009,0.419-0.289c0.029-0.628,0.526-0.698,0.974-0.717c0.47-0.02,0.975,0.121,1.044,0.67
				c0.071,0.567,0.393,0.681,0.844,0.67c0.689-0.016,1.361,0.117,2.039,0.195c0.075,0.009,0.151,0.02,0.224,0.041
				c0.46,0.133,0.713,0.445,0.685,0.919c-0.023,0.399-0.471,0.677-0.966,0.553c-0.692-0.173-1.399-0.109-2.089-0.218
				c-0.415-0.066-0.474,0.106-0.468,0.456c0.027,1.677-0.017,1.557,1.582,1.408c0.584-0.055,1.165-0.189,1.75,0.007
				c0.326,0.109,0.611,0.269,0.631,0.645c0.02,0.379-0.212,0.631-0.529,0.812c-0.258,0.147-0.537,0.174-0.825,0.174
				C74.987,116.946,74.417,116.948,73.847,116.948z"/>
			<path d="M60.914,69.178c-0.015-0.487,0.059-0.955,0.279-1.395c0.45,0.035,0.725,0.383,1.075,0.598
				c1.814,1.11,3.461,2.447,5.115,3.774c0.22,0.177,0.462,0.328,0.703,0.476c0.497,0.304,0.614,0.686,0.336,1.134
				c-0.253,0.407-0.832,0.508-1.245,0.175c-0.367-0.297-0.67-0.674-1.042-0.963C64.435,71.657,62.75,70.313,60.914,69.178z"/>
			<path d="M68.521,78.35c-0.273-0.033-0.587-0.081-0.876-0.247c-1.823-1.05-3.642-2.109-5.525-3.049
				c-0.505-0.252-0.907-0.622-1.277-1.029c-0.098-0.107-0.324-0.209-0.212-0.414c0.097-0.178,0.299-0.237,0.491-0.242
				c0.601-0.015,1.185,0.125,1.687,0.435c1.391,0.856,2.86,1.561,4.317,2.291c0.322,0.161,0.643,0.333,0.981,0.45
				c0.484,0.168,0.791,0.492,1.009,0.939C69.424,78.112,69.283,78.346,68.521,78.35z"/>
			<path d="M77.882,70.954c0,0.038-0.002,0.076,0,0.114c0.028,0.415,0.134,0.89-0.411,1.044c-0.466,0.131-0.829-0.114-1.13-0.47
				c-0.342-0.406-0.623-0.78-0.575-1.397c0.054-0.689-0.088-1.395-0.172-2.091c-0.046-0.385,0.132-0.554,0.471-0.636
				c0.646-0.158,1.395,0.285,1.513,0.959C77.721,69.295,77.898,70.114,77.882,70.954z"/>
			<path d="M73.438,67.61c0.875-0.006,1.394,0.493,1.388,1.277c-0.006,0.875,0.026,1.745,0.215,2.603
				c0.064,0.29,0.003,0.527-0.268,0.681c-0.264,0.15-0.492,0.088-0.737-0.081c-0.773-0.533-1.237-1.192-1.135-2.193
				c0.054-0.524,0.015-1.065-0.046-1.59C72.792,67.768,72.996,67.559,73.438,67.61z"/>
			<g>
				<g>
					<path class="st2" d="M62.296,105.741c0.955-0.057,1.89,0.061,2.819,0.288c0.681,0.166,0.965-0.147,0.939-0.853
						c-0.086-2.332-0.224-4.662-0.173-6.997c0-0.019,0-0.038,0.002-0.057c0.022-0.377,0.349-0.793-0.052-1.12
						c-0.431-0.351-0.984-0.453-1.509-0.368c-0.673,0.109-1.324-0.064-1.986-0.028c-0.296,0.016-0.453-0.149-0.5-0.435
						c-0.085-0.524-0.174-1.047-0.259-1.571c-0.06-0.371,0.103-0.519,0.475-0.509c0.588,0.015,1.178,0.01,1.767,0.002
						c0.368-0.005,0.655,0.169,0.928,0.381c0.312,0.243,0.662,0.464,1.039,0.245c0.361-0.209,0.397-0.615,0.383-1.011
						c-0.053-1.46-0.11-2.92-0.137-4.38c-0.005-0.299-0.121-0.744,0.253-0.861c0.486-0.151,1.016-0.044,1.509,0.08
						c0.159,0.04,0.164,0.285,0.176,0.455c0.09,1.34,0.365,2.675,0.128,4.026c-0.023,0.134-0.014,0.262,0.057,0.385
						c0.256,0.441,1.264,0.931,1.76,0.87c1.093-0.135,2.191-0.21,3.292-0.214c0.3-0.001,0.607,0.041,0.9,0.11
						c0.787,0.187,1.031-0.068,1.048-0.893c0.027-1.313-0.158-2.611-0.2-3.918c-0.015-0.464,0.187-0.63,0.599-0.608
						c0.511,0.026,1.02,0.081,1.531,0.116c0.279,0.019,0.39,0.186,0.433,0.439c0.275,1.59,0.581,3.174,0.248,4.799
						c-0.145,0.708,0.796,1.531,1.614,1.412c0.606-0.088,1.212-0.069,1.818-0.086c0.277-0.008,0.432,0.093,0.464,0.373
						c0.069,0.606,0.051,1.214,0.029,1.821c-0.012,0.319-0.234,0.384-0.476,0.332c-0.871-0.188-1.735,0.078-2.609,0.011
						c-0.821-0.063-1.141,0.357-1.015,1.142c0.25,1.563,0.306,3.133,0.137,4.708c-0.128,1.191,0.688,1.875,1.856,1.553
						c0.274-0.076,0.551-0.129,0.841-0.131c1.229-0.011,1.236-0.008,1.259,1.25c0.024,1.358-0.05,1.447-1.349,1.258
						c-0.95-0.138-1.938-0.068-2.841-0.495c-0.137-0.065-0.3-0.038-0.445,0.024c-0.555,0.235-1.142,0.237-1.732,0.259
						c-3.11,0.113-6.219,0.256-9.329,0.349c-1.555,0.046-3.113,0.012-4.67,0.006c-0.76-0.003-0.775-0.026-0.776-0.751
						c-0.003-1.407-0.003-1.407,1.41-1.407C62.068,105.741,62.182,105.741,62.296,105.741z M71.365,104.22
						c0.898,0.099,1.746,0.188,2.592,0.288c0.602,0.071,1.043-0.176,1.094-0.631c0.054-0.479-0.347-0.853-0.957-0.893
						c-0.208-0.014-0.415-0.03-0.623-0.038c-1.173-0.049-2.345-0.117-3.518-0.131c-0.386-0.004-0.893,0.071-0.976,0.515
						c-0.071,0.382,0.378,0.551,0.675,0.75C70.215,104.458,70.817,104.305,71.365,104.22z M70.535,97.348
						c-0.363-0.037-0.677,0.101-0.983,0.256c-0.23,0.117-0.299,0.289-0.104,0.499c0.382,0.41,0.805,0.783,1.402,0.764
						c0.923-0.029,1.807,0.171,2.688,0.395c0.469,0.119,0.83,0.104,0.976-0.441c0.129-0.481-0.122-0.895-0.666-0.986
						C72.748,97.652,71.64,97.508,70.535,97.348z M70.515,99.684c-0.126,0.012-0.241,0.013-0.351,0.036
						c-0.129,0.026-0.259,0.062-0.381,0.111c-0.467,0.186-0.515,0.388-0.164,0.731c0.436,0.427,0.965,0.653,1.575,0.687
						c0.548,0.03,1.09,0.093,1.615,0.271c0.559,0.19,1.112,0.005,1.241-0.404c0.116-0.367-0.191-0.768-0.752-0.978
						c-0.053-0.02-0.108-0.038-0.164-0.047C72.257,99.954,71.381,99.818,70.515,99.684z"/>
				</g>
			</g>
			<g>
				<path class="st2" d="M94.25,107.725c-1.648,0.08-3.297,0.156-4.945,0.246c-0.278,0.015-0.443-0.057-0.465-0.352
					c-0.033-0.435-0.067-0.87-0.102-1.306c-0.027-0.339,0.119-0.497,0.466-0.464c0.774,0.075,1.547,0.145,2.293,0.4
					c0.97,0.332,1.349-0.055,1.26-1.071c-0.148-1.696-0.427-3.389-0.26-5.102c0.006-0.057,0.008-0.114,0.019-0.17
					c0.267-1.369,0.111-1.549-1.319-1.627c-0.795-0.043-1.588-0.133-2.383-0.194c-0.335-0.026-0.513-0.185-0.561-0.524
					c-0.091-0.646-0.073-1.285,0.039-1.927c0.054-0.309,0.196-0.413,0.514-0.335c0.847,0.21,1.701,0.387,2.548,0.596
					c0.889,0.219,1.2-0.022,1.166-0.956c-0.044-1.214-0.101-2.427-0.151-3.641c-0.006-0.152-0.006-0.304-0.004-0.456
					c0.014-1.151,0.59-1.533,1.673-1.126c0.243,0.092,0.301,0.26,0.29,0.489c-0.072,1.517,0.166,3.031,0.042,4.55
					c-0.047,0.578,0.86,1.329,1.604,1.361c0.417,0.018,0.836,0.017,1.253,0.037c0.294,0.014,0.5,0.12,0.527,0.468
					c0.057,0.718,0.131,1.436,0.215,2.152c0.048,0.407-0.13,0.512-0.494,0.434c-0.649-0.139-1.3-0.271-1.949-0.413
					c-0.86-0.188-1.381,0.242-1.3,1.109c0.093,1.001,0.225,1.998,0.32,2.999c0.065,0.683,0.067,1.364-0.162,2.029
					c-0.103,0.301-0.097,0.636,0.197,0.828c0.502,0.328,1.001,0.735,1.674,0.484c0.337-0.125,0.655-0.302,1.027-0.321
					c0.315-0.016,0.524,0.056,0.49,0.436c-0.02,0.226-0.004,0.456-0.009,0.684c-0.003,0.131-0.006,0.236-0.182,0.299
					C96.499,107.734,95.393,107.879,94.25,107.725z"/>
			</g>
			<path class="st0" d="M28.766,42.839c0.032,3.607,0.158,7.211,0.36,10.812c0.163,2.898,0.293,5.801,0.585,8.688
				c0.368,3.64,0.757,7.288,2.135,10.735c0.993,2.484,2.465,4.54,5.022,5.604c2.277,0.948,4.571,1.012,6.849-0.02
				c1.486-0.673,2.356-1.9,2.873-3.375c0.839-2.397,1.722-4.787,2.259-7.274c0.397-1.836,0.506-3.72,0.749-5.583
				c0.456-3.495,0.462-7.002,0.35-10.516c-0.124-3.891-0.445-7.766-0.877-11.632c-0.048-0.434,0.089-0.519,0.477-0.504
				c2.919,0.111,5.837,0.147,8.745,0.542c2.818,0.382,5.64,0.833,8.504,0.7c1.29-0.06,2.58-0.117,3.868-0.198
				c0.44-0.028,0.539,0.112,0.495,0.551c-0.256,2.548-0.575,5.09-0.664,7.653c-0.027,0.776-0.132,1.55-0.183,2.326
				c-0.023,0.36-0.224,0.415-0.531,0.429c-1.164,0.052-2.316-0.082-3.465-0.215c-1.118-0.129-2.237-0.116-3.356-0.123
				c-0.386-0.002-0.761-0.034-1.109-0.203c-0.204-0.099-0.395-0.1-0.605-0.03c-1.171,0.392-1.214,0.431-1.031,1.624
				c0.262,1.706,0.164,3.451,0.088,5.176c-0.099,2.254-0.25,4.507-0.612,6.741c-0.834,5.153-2.039,10.199-4.443,14.876
				c-1.838,3.576-4.259,6.724-7.22,9.454c-1.307,1.205-2.876,1.793-4.591,2.095c-2.809,0.494-5.511,0.027-8.182-0.832
				c-1.76-0.566-3.457-1.234-4.97-2.336c-2.557-1.862-4.375-4.286-5.647-7.155c-1.15-2.593-1.704-5.326-2.084-8.124
				c-0.426-3.134-0.575-6.28-0.514-9.427c0.068-3.466,0.097-6.951,1.013-10.341c0.262-0.969,0.476-1.95,0.871-2.882
				c0.352-0.831-0.011-1.358-0.9-1.328c-2.483,0.083-4.913-0.419-7.37-0.628c-2.515-0.214-5.036-0.34-7.558-0.436
				c-0.929-0.036-1.858-0.086-2.788-0.103c-0.4-0.007-0.523-0.189-0.537-0.56c-0.074-1.972-0.158-3.944-0.247-5.916
				c-0.047-1.042-0.092-2.084-0.17-3.124c-0.037-0.493,0.235-0.514,0.597-0.507c3.227,0.06,6.448,0.211,9.669,0.418
				c2.86,0.184,5.711,0.468,8.569,0.664c1.722,0.118,3.441,0.295,5.163,0.412c0.389,0.027,0.416,0.212,0.414,0.508
				C28.762,40.597,28.766,41.718,28.766,42.839z"/>
			<path d="M71.365,104.22c-0.548,0.085-1.15,0.238-1.713-0.14c-0.296-0.199-0.746-0.368-0.675-0.75
				c0.083-0.445,0.589-0.52,0.976-0.515c1.173,0.014,2.345,0.082,3.518,0.131c0.208,0.009,0.415,0.025,0.623,0.038
				c0.61,0.04,1.011,0.414,0.957,0.893c-0.051,0.455-0.492,0.702-1.094,0.631C73.11,104.408,72.263,104.319,71.365,104.22z"/>
			<path d="M70.535,97.348c1.105,0.16,2.212,0.303,3.313,0.487c0.544,0.091,0.795,0.505,0.666,0.986
				c-0.146,0.545-0.508,0.56-0.976,0.441c-0.88-0.223-1.764-0.423-2.688-0.395c-0.596,0.019-1.019-0.355-1.402-0.764
				c-0.195-0.209-0.126-0.382,0.104-0.499C69.859,97.449,70.173,97.311,70.535,97.348z"/>
			<path d="M70.515,99.684c0.866,0.134,1.743,0.27,2.619,0.407c0.056,0.009,0.111,0.027,0.164,0.047
				c0.561,0.211,0.868,0.611,0.752,0.978c-0.129,0.409-0.682,0.594-1.241,0.404c-0.525-0.178-1.067-0.241-1.615-0.271
				c-0.61-0.034-1.139-0.26-1.575-0.687c-0.351-0.344-0.303-0.545,0.164-0.731c0.123-0.049,0.252-0.084,0.381-0.111
				C70.274,99.697,70.389,99.696,70.515,99.684z"/>
		</g>
	</g>
</g>
</svg>
